<svg id="svg" version="1.1" width="400" height="209.6" viewBox="0 0 400 209.6" xmlns="http://www.w3.org/2000/svg" xmlns:xlink="http://www.w3.org/1999/xlink" ><g id="svgg"><path id="path0" d="" stroke="none" fill="#000000" fill-rule="evenodd"></path><path id="path1" d="" stroke="none" fill="#555555" fill-rule="evenodd"></path><path id="path2" d="" stroke="none" fill="#999999" fill-rule="evenodd"></path><path id="path3" d="" stroke="none" fill="#b6b6b6" fill-rule="evenodd"></path><path id="path4" d="M198.952 20.933 C 198.952 21.259,198.819 21.308,198.123 21.238 C 197.493 21.175,197.191 21.258,196.865 21.584 C 196.629 21.820,196.247 22.013,196.017 22.013 C 195.786 22.013,195.409 22.201,195.178 22.432 C 194.948 22.662,194.482 22.851,194.144 22.851 C 193.713 22.851,193.489 22.977,193.396 23.270 C 193.298 23.580,193.079 23.690,192.558 23.690 C 192.036 23.690,191.817 23.799,191.719 24.109 C 191.620 24.421,191.402 24.528,190.866 24.528 C 190.366 24.528,190.147 24.624,190.147 24.843 C 190.147 25.036,189.951 25.157,189.640 25.157 C 188.916 25.157,188.470 25.366,188.470 25.704 C 188.470 25.888,188.239 25.996,187.842 25.996 C 187.442 25.996,187.120 26.148,186.953 26.415 C 186.779 26.695,186.465 26.834,186.008 26.834 C 185.465 26.834,185.325 26.920,185.325 27.254 C 185.325 27.603,185.185 27.673,184.486 27.673 C 183.788 27.673,183.648 27.743,183.648 28.092 C 183.648 28.434,183.508 28.512,182.894 28.512 C 182.317 28.512,182.115 28.610,182.031 28.931 C 181.953 29.232,181.745 29.350,181.297 29.350 C 180.954 29.350,180.422 29.483,180.116 29.646 C 179.810 29.809,179.253 30.056,178.878 30.196 C 178.504 30.335,178.197 30.532,178.197 30.633 C 178.197 30.735,177.961 30.818,177.673 30.818 C 177.385 30.818,176.960 31.006,176.730 31.237 C 176.499 31.468,176.034 31.656,175.695 31.656 C 175.265 31.656,175.041 31.782,174.948 32.075 C 174.874 32.306,174.640 32.495,174.426 32.495 C 173.815 32.495,173.375 32.723,173.375 33.041 C 173.375 33.236,173.128 33.333,172.635 33.333 C 172.193 33.333,171.849 33.452,171.782 33.627 C 171.720 33.789,171.355 33.980,170.970 34.052 C 170.586 34.124,170.218 34.322,170.153 34.492 C 170.087 34.662,169.850 34.801,169.625 34.801 C 168.994 34.801,168.553 35.026,168.553 35.347 C 168.553 35.543,168.304 35.639,167.800 35.639 C 167.223 35.639,167.021 35.738,166.937 36.059 C 166.854 36.377,166.651 36.478,166.098 36.478 C 165.546 36.478,165.343 36.579,165.260 36.897 C 165.178 37.212,164.974 37.317,164.441 37.317 C 163.871 37.317,163.732 37.399,163.732 37.736 C 163.732 38.085,163.592 38.155,162.893 38.155 C 162.303 38.155,162.055 38.245,162.055 38.457 C 162.055 38.654,161.783 38.781,161.268 38.824 C 160.655 38.875,160.496 38.969,160.544 39.256 C 160.593 39.552,160.451 39.623,159.808 39.623 C 159.238 39.623,158.936 39.742,158.749 40.042 C 158.587 40.301,158.260 40.461,157.892 40.461 C 157.564 40.461,157.128 40.649,156.918 40.881 C 156.710 41.111,156.317 41.300,156.045 41.300 C 155.774 41.300,155.390 41.488,155.192 41.719 C 154.995 41.950,154.583 42.138,154.277 42.138 C 153.971 42.138,153.603 42.280,153.459 42.453 C 153.316 42.626,153.021 42.767,152.805 42.767 C 152.588 42.767,152.222 42.956,151.992 43.187 C 151.761 43.417,151.391 43.606,151.170 43.606 C 150.545 43.606,150.105 43.832,150.105 44.152 C 150.105 44.337,149.874 44.444,149.478 44.444 C 149.078 44.444,148.756 44.596,148.589 44.864 C 148.416 45.141,148.100 45.283,147.658 45.283 C 147.173 45.283,146.952 45.398,146.855 45.702 C 146.756 46.014,146.538 46.122,146.003 46.122 C 145.423 46.122,145.283 46.203,145.283 46.541 C 145.283 46.890,145.143 46.960,144.444 46.960 C 143.839 46.960,143.606 47.048,143.606 47.275 C 143.606 47.486,143.394 47.589,142.957 47.589 C 142.485 47.589,142.279 47.703,142.199 48.008 C 142.113 48.337,141.913 48.428,141.275 48.428 C 140.828 48.428,140.472 48.498,140.486 48.585 C 140.570 49.119,140.394 49.266,139.673 49.266 C 139.112 49.266,138.809 49.387,138.623 49.686 C 138.475 49.923,138.134 50.105,137.837 50.105 C 137.548 50.105,137.151 50.294,136.953 50.524 C 136.756 50.755,136.339 50.943,136.027 50.943 C 135.715 50.943,135.330 51.073,135.171 51.232 C 135.012 51.391,134.574 51.589,134.198 51.671 C 133.822 51.754,133.464 51.954,133.402 52.116 C 133.339 52.278,133.016 52.411,132.684 52.411 C 132.306 52.411,131.981 52.568,131.817 52.830 C 131.655 53.090,131.328 53.249,130.957 53.249 C 130.535 53.249,130.327 53.373,130.249 53.669 C 130.164 53.997,129.963 54.088,129.326 54.088 C 128.651 54.088,128.512 54.160,128.512 54.507 C 128.512 54.857,128.372 54.927,127.673 54.927 C 126.974 54.927,126.834 54.997,126.834 55.346 C 126.834 55.686,126.695 55.765,126.094 55.765 C 125.629 55.765,125.309 55.882,125.233 56.080 C 125.163 56.262,124.849 56.394,124.486 56.394 C 124.036 56.394,123.829 56.512,123.750 56.813 C 123.665 57.142,123.465 57.233,122.827 57.233 C 122.152 57.233,122.013 57.305,122.013 57.652 C 122.013 57.986,121.873 58.071,121.325 58.071 C 120.878 58.071,120.532 58.218,120.335 58.491 C 120.158 58.737,119.793 58.910,119.451 58.910 C 119.130 58.910,118.679 59.099,118.449 59.329 C 118.214 59.564,117.750 59.748,117.394 59.748 C 117.042 59.748,116.708 59.880,116.646 60.042 C 116.584 60.204,116.204 60.398,115.803 60.473 C 115.401 60.548,115.020 60.746,114.956 60.913 C 114.885 61.097,114.553 61.216,114.109 61.216 C 113.554 61.216,113.351 61.317,113.268 61.635 C 113.186 61.950,112.982 62.055,112.449 62.055 C 111.880 62.055,111.740 62.137,111.740 62.474 C 111.740 62.823,111.600 62.893,110.901 62.893 C 110.203 62.893,110.063 62.963,110.063 63.312 C 110.063 63.662,109.923 63.732,109.224 63.732 C 108.619 63.732,108.386 63.819,108.386 64.046 C 108.386 64.360,108.173 64.440,107.510 64.374 C 107.316 64.355,106.960 64.509,106.719 64.717 C 106.477 64.924,106.070 65.146,105.813 65.209 C 105.556 65.271,105.346 65.460,105.346 65.628 C 105.346 65.829,105.077 65.955,104.553 65.998 C 104.047 66.040,103.669 66.211,103.507 66.470 C 103.365 66.697,103.021 66.876,102.725 66.876 C 102.424 66.876,102.085 67.057,101.935 67.296 C 101.769 67.563,101.447 67.715,101.048 67.715 C 100.650 67.715,100.328 67.867,100.161 68.134 C 100.005 68.385,99.672 68.553,99.336 68.553 C 99.026 68.553,98.631 68.695,98.458 68.868 C 98.285 69.041,97.948 69.182,97.709 69.182 C 97.470 69.182,97.086 69.371,96.855 69.602 C 96.625 69.832,96.247 70.021,96.017 70.021 C 95.786 70.021,95.409 70.210,95.178 70.440 C 94.948 70.671,94.570 70.860,94.340 70.860 C 94.109 70.860,93.732 71.048,93.501 71.279 C 93.270 71.509,92.847 71.698,92.559 71.698 C 92.264 71.698,91.923 71.880,91.775 72.117 C 91.600 72.397,91.286 72.537,90.830 72.537 C 90.362 72.537,90.147 72.636,90.147 72.851 C 90.147 73.044,89.951 73.166,89.640 73.166 C 88.916 73.166,88.470 73.374,88.470 73.712 C 88.470 73.897,88.239 74.004,87.842 74.004 C 87.442 74.004,87.120 74.156,86.953 74.423 C 86.779 74.703,86.465 74.843,86.008 74.843 C 85.465 74.843,85.325 74.929,85.325 75.262 C 85.325 75.611,85.185 75.681,84.486 75.681 C 83.788 75.681,83.648 75.751,83.648 76.101 C 83.648 76.450,83.508 76.520,82.809 76.520 C 82.110 76.520,81.971 76.590,81.971 76.939 C 81.971 77.279,81.831 77.358,81.237 77.358 C 80.724 77.358,80.503 77.453,80.503 77.673 C 80.503 77.891,80.285 77.987,79.794 77.987 C 79.261 77.987,79.057 78.092,78.975 78.407 C 78.888 78.737,78.689 78.826,78.031 78.826 C 77.374 78.826,77.175 78.915,77.088 79.245 C 77.010 79.545,76.802 79.665,76.362 79.665 C 76.013 79.665,75.582 79.846,75.367 80.084 C 75.158 80.314,74.766 80.503,74.496 80.503 C 74.225 80.503,73.816 80.692,73.585 80.922 C 73.350 81.157,72.886 81.342,72.530 81.342 C 72.178 81.342,71.844 81.473,71.782 81.636 C 71.720 81.797,71.355 81.988,70.970 82.061 C 70.586 82.133,70.222 82.319,70.163 82.474 C 70.103 82.629,69.717 82.820,69.304 82.897 C 68.852 82.982,68.553 83.159,68.553 83.343 C 68.553 83.553,68.320 83.648,67.800 83.648 C 67.223 83.648,67.021 83.746,66.937 84.067 C 66.854 84.385,66.651 84.486,66.098 84.486 C 65.546 84.486,65.343 84.588,65.260 84.906 C 65.178 85.221,64.974 85.325,64.441 85.325 C 63.871 85.325,63.732 85.408,63.732 85.744 C 63.732 86.094,63.592 86.164,62.893 86.164 C 62.303 86.164,62.055 86.253,62.055 86.465 C 62.055 86.663,61.783 86.790,61.268 86.832 C 60.670 86.882,60.489 86.985,60.511 87.264 C 60.534 87.552,60.375 87.631,59.776 87.631 C 59.238 87.631,58.933 87.755,58.749 88.050 C 58.587 88.310,58.260 88.470,57.892 88.470 C 57.564 88.470,57.128 88.657,56.918 88.889 C 56.710 89.119,56.317 89.308,56.045 89.308 C 55.774 89.308,55.390 89.497,55.192 89.727 C 54.995 89.958,54.583 90.147,54.277 90.147 C 53.971 90.147,53.611 90.278,53.477 90.439 C 53.344 90.600,52.908 90.793,52.508 90.868 C 52.075 90.949,51.782 91.127,51.782 91.309 C 51.782 91.520,51.548 91.614,51.029 91.614 C 50.452 91.614,50.250 91.712,50.166 92.034 C 50.082 92.351,49.880 92.453,49.327 92.453 C 48.774 92.453,48.572 92.554,48.488 92.872 C 48.407 93.185,48.202 93.291,47.684 93.291 C 47.173 93.291,46.953 93.402,46.855 93.711 C 46.756 94.023,46.538 94.130,46.003 94.130 C 45.423 94.130,45.283 94.211,45.283 94.549 C 45.283 94.899,45.143 94.969,44.444 94.969 C 43.839 94.969,43.606 95.056,43.606 95.283 C 43.606 95.503,43.385 95.597,42.872 95.597 C 42.278 95.597,42.138 95.677,42.138 96.017 C 42.138 96.366,41.999 96.436,41.300 96.436 C 40.601 96.436,40.461 96.506,40.461 96.855 C 40.461 97.206,40.321 97.275,39.609 97.275 C 38.851 97.275,38.771 97.322,38.889 97.694 C 39.007 98.066,38.927 98.113,38.171 98.113 C 37.547 98.113,37.250 98.225,37.058 98.532 C 36.914 98.763,36.577 98.952,36.308 98.952 C 36.039 98.952,35.678 99.093,35.505 99.266 C 35.332 99.439,34.976 99.581,34.714 99.581 C 34.451 99.581,34.066 99.769,33.857 100.000 C 33.649 100.231,33.257 100.419,32.986 100.419 C 32.716 100.419,32.306 100.608,32.075 100.839 C 31.845 101.069,31.468 101.258,31.237 101.258 C 31.006 101.258,30.629 101.447,30.398 101.677 C 30.168 101.908,29.790 102.096,29.560 102.096 C 29.329 102.096,28.952 102.285,28.721 102.516 C 28.491 102.746,28.057 102.935,27.758 102.935 C 27.391 102.935,27.179 103.071,27.105 103.354 C 27.022 103.670,26.819 103.774,26.279 103.774 C 25.836 103.774,25.517 103.893,25.443 104.088 C 25.376 104.261,25.143 104.403,24.925 104.403 C 24.707 104.403,24.340 104.591,24.109 104.822 C 23.878 105.052,23.524 105.241,23.321 105.241 C 22.879 105.241,22.293 106.074,22.601 106.265 C 22.715 106.336,22.842 106.630,22.882 106.918 C 22.944 107.356,23.085 107.453,23.742 107.507 C 24.358 107.558,24.528 107.661,24.528 107.979 C 24.528 108.301,24.675 108.386,25.238 108.386 C 25.771 108.386,25.974 108.490,26.057 108.805 C 26.140 109.123,26.343 109.224,26.895 109.224 C 27.448 109.224,27.651 109.326,27.734 109.644 C 27.817 109.961,28.020 110.063,28.572 110.063 C 29.125 110.063,29.328 110.164,29.411 110.482 C 29.490 110.783,29.697 110.901,30.147 110.901 C 30.510 110.901,30.823 111.034,30.893 111.216 C 30.969 111.413,31.290 111.530,31.754 111.530 C 32.355 111.530,32.495 111.610,32.495 111.950 C 32.495 112.291,32.635 112.369,33.248 112.369 C 33.825 112.369,34.027 112.467,34.111 112.788 C 34.191 113.095,34.397 113.208,34.880 113.208 C 35.312 113.208,35.629 113.352,35.800 113.627 C 35.967 113.894,36.289 114.046,36.689 114.046 C 37.098 114.046,37.317 114.152,37.317 114.351 C 37.317 114.536,37.617 114.712,38.079 114.799 C 38.498 114.878,39.017 115.118,39.232 115.333 C 39.447 115.548,39.818 115.723,40.057 115.723 C 40.296 115.723,40.633 115.865,40.806 116.038 C 40.979 116.211,41.374 116.352,41.684 116.352 C 42.020 116.352,42.353 116.521,42.509 116.771 C 42.676 117.039,42.998 117.191,43.396 117.191 C 43.795 117.191,44.117 117.343,44.283 117.610 C 44.470 117.909,44.772 118.029,45.333 118.029 C 45.982 118.029,46.122 118.104,46.122 118.449 C 46.122 118.799,46.261 118.868,46.969 118.868 C 47.660 118.868,47.806 118.936,47.756 119.235 C 47.707 119.521,47.866 119.616,48.480 119.667 C 48.994 119.709,49.266 119.836,49.266 120.034 C 49.266 120.246,49.515 120.335,50.105 120.335 C 50.804 120.335,50.943 120.405,50.943 120.755 C 50.943 121.091,51.083 121.174,51.653 121.174 C 52.186 121.174,52.389 121.278,52.472 121.593 C 52.555 121.911,52.758 122.013,53.310 122.013 C 53.863 122.013,54.066 122.114,54.149 122.432 C 54.233 122.753,54.435 122.851,55.012 122.851 C 55.539 122.851,55.765 122.945,55.765 123.163 C 55.765 123.365,56.061 123.522,56.604 123.609 C 57.093 123.688,57.442 123.859,57.442 124.021 C 57.442 124.174,57.769 124.361,58.169 124.436 C 58.568 124.511,59.004 124.704,59.138 124.865 C 59.271 125.026,59.631 125.157,59.937 125.157 C 60.243 125.157,60.655 125.346,60.853 125.577 C 61.064 125.823,61.471 125.996,61.841 125.996 C 62.243 125.996,62.565 126.147,62.732 126.415 C 62.889 126.666,63.221 126.834,63.558 126.834 C 63.939 126.834,64.166 126.971,64.256 127.254 C 64.358 127.576,64.573 127.673,65.189 127.673 C 65.822 127.673,66.013 127.764,66.103 128.108 C 66.171 128.371,66.368 128.527,66.599 128.503 C 67.377 128.422,67.715 128.520,67.715 128.826 C 67.715 129.046,67.936 129.140,68.449 129.140 C 69.043 129.140,69.182 129.220,69.182 129.560 C 69.182 129.909,69.322 129.979,70.021 129.979 C 70.720 129.979,70.860 130.049,70.860 130.398 C 70.860 130.748,70.999 130.818,71.698 130.818 C 72.397 130.818,72.537 130.887,72.537 131.237 C 72.537 131.576,72.676 131.656,73.270 131.656 C 73.758 131.656,74.004 131.754,74.004 131.948 C 74.004 132.286,74.451 132.495,75.174 132.495 C 75.485 132.495,75.681 132.616,75.681 132.809 C 75.681 133.027,75.900 133.124,76.391 133.124 C 76.924 133.124,77.127 133.228,77.210 133.543 C 77.293 133.861,77.496 133.962,78.048 133.962 C 78.601 133.962,78.804 134.064,78.887 134.382 C 78.970 134.699,79.173 134.801,79.725 134.801 C 80.278 134.801,80.481 134.902,80.564 135.220 C 80.643 135.524,80.850 135.639,81.315 135.639 C 81.741 135.639,82.031 135.780,82.180 136.059 C 82.324 136.328,82.619 136.478,83.004 136.478 C 83.333 136.478,83.655 136.614,83.719 136.781 C 83.783 136.947,84.164 137.145,84.566 137.221 C 84.967 137.296,85.347 137.490,85.409 137.652 C 85.476 137.827,85.820 137.945,86.262 137.945 C 86.755 137.945,87.002 138.043,87.002 138.238 C 87.002 138.558,87.443 138.784,88.067 138.784 C 88.289 138.784,88.658 138.973,88.889 139.203 C 89.168 139.483,89.588 139.623,90.147 139.623 C 90.846 139.623,90.985 139.693,90.985 140.042 C 90.985 140.273,91.056 140.450,91.143 140.436 C 91.845 140.325,92.417 140.511,92.514 140.881 C 92.598 141.202,92.800 141.300,93.377 141.300 C 93.907 141.300,94.130 141.393,94.130 141.614 C 94.130 141.834,94.351 141.929,94.864 141.929 C 95.458 141.929,95.597 142.009,95.597 142.348 C 95.597 142.697,95.737 142.767,96.436 142.767 C 97.135 142.767,97.275 142.837,97.275 143.187 C 97.275 143.536,97.414 143.606,98.113 143.606 C 98.812 143.606,98.952 143.676,98.952 144.025 C 98.952 144.362,99.092 144.444,99.661 144.444 C 100.194 144.444,100.398 144.549,100.480 144.864 C 100.564 145.185,100.766 145.283,101.343 145.283 C 101.870 145.283,102.096 145.377,102.096 145.595 C 102.096 145.796,102.390 145.954,102.922 146.039 C 103.376 146.112,103.798 146.301,103.859 146.461 C 103.933 146.654,104.321 146.751,105.025 146.751 C 106.014 146.751,106.194 146.864,106.104 147.432 C 106.091 147.518,106.399 147.589,106.789 147.589 C 107.322 147.589,107.526 147.693,107.608 148.008 C 107.691 148.326,107.894 148.428,108.446 148.428 C 108.999 148.428,109.202 148.529,109.285 148.847 C 109.369 149.168,109.571 149.266,110.148 149.266 C 110.652 149.266,110.901 149.363,110.901 149.558 C 110.901 149.880,111.342 150.105,111.973 150.105 C 112.198 150.105,112.436 150.246,112.503 150.419 C 112.576 150.610,112.893 150.734,113.310 150.734 C 113.821 150.734,114.025 150.841,114.107 151.153 C 114.191 151.474,114.393 151.572,114.970 151.572 C 115.474 151.572,115.723 151.669,115.723 151.864 C 115.723 152.185,116.164 152.411,116.789 152.411 C 117.010 152.411,117.379 152.600,117.610 152.830 C 117.841 153.061,118.218 153.249,118.449 153.249 C 118.679 153.249,119.057 153.438,119.287 153.669 C 119.518 153.899,119.928 154.088,120.198 154.088 C 120.469 154.088,120.856 154.272,121.059 154.496 C 121.264 154.722,121.768 154.932,122.192 154.968 C 122.666 155.007,122.936 155.131,122.904 155.294 C 122.869 155.468,123.131 155.556,123.690 155.556 C 124.389 155.556,124.528 155.625,124.528 155.975 C 124.528 156.314,124.668 156.394,125.262 156.394 C 125.856 156.394,125.996 156.474,125.996 156.813 C 125.996 157.161,126.136 157.233,126.810 157.233 C 127.448 157.233,127.648 157.324,127.734 157.652 C 127.818 157.973,128.020 158.071,128.597 158.071 C 129.101 158.071,129.350 158.168,129.350 158.363 C 129.350 158.680,129.789 158.910,130.393 158.910 C 130.602 158.910,130.827 159.051,130.893 159.224 C 130.968 159.419,131.287 159.539,131.730 159.539 C 132.270 159.539,132.473 159.642,132.556 159.958 C 132.639 160.279,132.841 160.377,133.419 160.377 C 133.923 160.377,134.172 160.474,134.172 160.669 C 134.172 160.990,134.612 161.216,135.237 161.216 C 135.458 161.216,135.828 161.405,136.059 161.635 C 136.289 161.866,136.667 162.055,136.897 162.055 C 137.128 162.055,137.505 162.243,137.736 162.474 C 137.966 162.704,138.348 162.893,138.583 162.893 C 138.819 162.893,139.214 163.082,139.461 163.312 C 139.709 163.543,140.123 163.732,140.381 163.732 C 140.639 163.732,140.992 163.873,141.165 164.046 C 141.338 164.219,141.763 164.361,142.109 164.361 C 142.555 164.361,142.778 164.483,142.872 164.780 C 142.971 165.092,143.189 165.199,143.725 165.199 C 144.305 165.199,144.444 165.281,144.444 165.618 C 144.444 165.968,144.584 166.038,145.283 166.038 C 145.982 166.038,146.122 166.108,146.122 166.457 C 146.122 166.794,146.261 166.876,146.831 166.876 C 147.364 166.876,147.567 166.981,147.650 167.296 C 147.734 167.617,147.936 167.715,148.513 167.715 C 149.043 167.715,149.266 167.808,149.266 168.029 C 149.266 168.256,149.499 168.344,150.105 168.344 C 150.804 168.344,150.943 168.414,150.943 168.763 C 150.943 169.100,151.083 169.182,151.653 169.182 C 152.186 169.182,152.389 169.287,152.472 169.602 C 152.555 169.920,152.758 170.021,153.310 170.021 C 153.863 170.021,154.066 170.122,154.149 170.440 C 154.233 170.761,154.435 170.860,155.012 170.860 C 155.531 170.860,155.765 170.954,155.765 171.165 C 155.765 171.349,156.066 171.526,156.528 171.613 C 156.947 171.691,157.466 171.931,157.681 172.146 C 157.896 172.361,158.284 172.540,158.543 172.543 C 158.802 172.547,159.198 172.689,159.422 172.858 C 159.645 173.027,160.046 173.166,160.311 173.166 C 160.576 173.166,160.911 173.354,161.055 173.585 C 161.241 173.883,161.544 174.004,162.105 174.004 C 162.753 174.004,162.893 174.079,162.893 174.423 C 162.893 174.760,163.033 174.843,163.602 174.843 C 164.135 174.843,164.339 174.947,164.421 175.262 C 164.504 175.580,164.707 175.681,165.260 175.681 C 165.813 175.681,166.015 175.783,166.098 176.101 C 166.182 176.422,166.384 176.520,166.962 176.520 C 167.491 176.520,167.715 176.613,167.715 176.834 C 167.715 177.053,167.935 177.149,168.435 177.149 C 168.970 177.149,169.188 177.256,169.287 177.568 C 169.385 177.876,169.604 177.987,170.115 177.987 C 170.634 177.987,170.838 178.094,170.920 178.407 C 171.004 178.728,171.206 178.826,171.783 178.826 C 172.287 178.826,172.537 178.923,172.537 179.118 C 172.537 179.439,172.977 179.665,173.602 179.665 C 173.823 179.665,174.193 179.853,174.423 180.084 C 174.654 180.314,175.031 180.503,175.262 180.503 C 175.493 180.503,175.870 180.692,176.101 180.922 C 176.331 181.153,176.744 181.342,177.018 181.342 C 177.292 181.342,177.634 181.483,177.778 181.656 C 177.921 181.829,178.289 181.971,178.596 181.971 C 178.912 181.971,179.283 182.152,179.455 182.390 C 179.665 182.682,179.998 182.809,180.549 182.809 C 181.202 182.809,181.342 182.883,181.342 183.229 C 181.342 183.565,181.481 183.648,182.051 183.648 C 182.584 183.648,182.788 183.752,182.870 184.067 C 182.953 184.385,183.156 184.486,183.709 184.486 C 184.261 184.486,184.464 184.588,184.547 184.906 C 184.627 185.212,184.833 185.325,185.312 185.325 C 185.701 185.325,186.016 185.453,186.088 185.639 C 186.161 185.830,186.478 185.954,186.895 185.954 C 187.406 185.954,187.610 186.062,187.692 186.373 C 187.775 186.691,187.978 186.792,188.530 186.792 C 189.083 186.792,189.286 186.894,189.369 187.212 C 189.453 187.533,189.655 187.631,190.232 187.631 C 190.736 187.631,190.985 187.728,190.985 187.923 C 190.985 188.239,191.424 188.470,192.028 188.470 C 192.237 188.470,192.460 188.606,192.524 188.773 C 192.588 188.939,192.972 189.138,193.378 189.214 C 193.783 189.290,194.224 189.484,194.358 189.645 C 194.491 189.805,194.857 189.937,195.171 189.937 C 195.485 189.937,195.913 190.126,196.122 190.356 C 196.376 190.637,196.767 190.776,197.307 190.776 C 197.973 190.776,198.113 190.848,198.113 191.195 C 198.113 191.837,202.164 191.837,202.564 191.195 C 202.742 190.911,203.053 190.776,203.529 190.776 C 204.056 190.776,204.260 190.671,204.342 190.356 C 204.424 190.040,204.628 189.937,205.167 189.937 C 205.610 189.937,205.929 189.817,206.004 189.623 C 206.074 189.440,206.387 189.308,206.751 189.308 C 207.200 189.308,207.408 189.190,207.486 188.889 C 207.573 188.559,207.772 188.470,208.419 188.470 C 209.087 188.470,209.231 188.400,209.181 188.103 C 209.132 187.809,209.297 187.723,210.016 187.671 C 210.629 187.627,210.994 187.477,211.167 187.199 C 211.337 186.928,211.656 186.792,212.125 186.792 C 212.651 186.792,212.855 186.687,212.937 186.373 C 213.020 186.057,213.223 185.954,213.763 185.954 C 214.178 185.954,214.525 185.832,214.590 185.664 C 214.651 185.505,215.072 185.315,215.527 185.242 C 216.059 185.157,216.352 184.999,216.352 184.798 C 216.352 184.592,216.564 184.486,216.979 184.486 C 217.379 184.486,217.701 184.335,217.868 184.067 C 218.043 183.787,218.357 183.648,218.814 183.648 C 219.357 183.648,219.497 183.562,219.497 183.229 C 219.497 182.879,219.637 182.809,220.335 182.809 C 221.034 182.809,221.174 182.739,221.174 182.390 C 221.174 182.041,221.314 181.971,222.013 181.971 C 222.618 181.971,222.851 181.883,222.851 181.656 C 222.851 181.444,223.063 181.342,223.500 181.342 C 223.972 181.342,224.178 181.228,224.258 180.922 C 224.341 180.605,224.544 180.503,225.096 180.503 C 225.649 180.503,225.852 180.402,225.935 180.084 C 226.017 179.769,226.221 179.665,226.754 179.665 C 227.324 179.665,227.463 179.582,227.463 179.245 C 227.463 178.896,227.603 178.826,228.302 178.826 C 228.861 178.826,229.280 178.686,229.560 178.407 C 229.798 178.168,230.259 177.987,230.628 177.987 C 231.100 177.987,231.306 177.873,231.386 177.568 C 231.468 177.252,231.672 177.149,232.211 177.149 C 232.632 177.149,232.974 177.028,233.040 176.855 C 233.102 176.693,233.481 176.499,233.883 176.424 C 234.285 176.349,234.666 176.151,234.729 175.984 C 234.793 175.818,235.115 175.681,235.445 175.681 C 235.829 175.681,236.124 175.531,236.268 175.262 C 236.418 174.983,236.707 174.843,237.134 174.843 C 237.599 174.843,237.805 174.727,237.885 174.423 C 237.968 174.106,238.171 174.004,238.723 174.004 C 239.276 174.004,239.479 173.903,239.562 173.585 C 239.645 173.269,239.848 173.166,240.387 173.166 C 240.830 173.166,241.149 173.046,241.224 172.851 C 241.294 172.669,241.608 172.537,241.971 172.537 C 242.421 172.537,242.628 172.419,242.707 172.117 C 242.790 171.800,242.993 171.698,243.545 171.698 C 244.098 171.698,244.301 171.597,244.384 171.279 C 244.480 170.909,245.052 170.724,245.755 170.835 C 245.841 170.848,245.901 170.789,245.887 170.702 C 245.802 170.161,245.979 170.021,246.751 170.021 C 247.310 170.021,247.729 169.881,248.008 169.602 C 248.239 169.371,248.609 169.182,248.830 169.182 C 249.455 169.182,249.895 168.956,249.895 168.636 C 249.895 168.441,250.142 168.344,250.636 168.344 C 251.077 168.344,251.421 168.225,251.489 168.050 C 251.551 167.888,251.930 167.694,252.332 167.619 C 252.733 167.544,253.114 167.346,253.178 167.179 C 253.244 167.009,253.568 166.876,253.920 166.876 C 254.370 166.876,254.577 166.758,254.656 166.457 C 254.742 166.129,254.942 166.038,255.580 166.038 C 256.254 166.038,256.394 165.966,256.394 165.618 C 256.394 165.281,256.534 165.199,257.114 165.199 C 257.649 165.199,257.867 165.092,257.966 164.780 C 258.065 164.468,258.284 164.361,258.819 164.361 C 259.319 164.361,259.539 164.265,259.539 164.046 C 259.539 163.825,259.762 163.732,260.292 163.732 C 260.869 163.732,261.071 163.634,261.155 163.312 C 261.238 162.994,261.441 162.893,261.994 162.893 C 262.546 162.893,262.749 162.792,262.832 162.474 C 262.915 162.159,263.118 162.055,263.651 162.055 C 264.041 162.055,264.349 161.984,264.336 161.897 C 264.250 161.356,264.427 161.216,265.199 161.216 C 265.758 161.216,266.177 161.076,266.457 160.797 C 266.688 160.566,267.066 160.377,267.298 160.377 C 267.529 160.377,267.881 160.189,268.078 159.958 C 268.275 159.727,268.605 159.539,268.810 159.539 C 269.015 159.539,269.182 159.397,269.182 159.224 C 269.182 159.007,269.400 158.910,269.884 158.910 C 270.319 158.910,270.729 158.751,270.964 158.491 C 271.173 158.260,271.565 158.071,271.835 158.071 C 272.106 158.071,272.516 157.883,272.746 157.652 C 272.977 157.421,273.347 157.233,273.568 157.233 C 274.193 157.233,274.633 157.007,274.633 156.686 C 274.633 156.491,274.882 156.394,275.387 156.394 C 275.964 156.394,276.166 156.296,276.250 155.975 C 276.332 155.659,276.535 155.556,277.075 155.556 C 277.518 155.556,277.837 155.436,277.912 155.241 C 277.980 155.062,278.293 154.927,278.637 154.927 C 279.015 154.927,279.340 154.769,279.504 154.507 C 279.666 154.247,279.992 154.088,280.364 154.088 C 280.785 154.088,280.994 153.964,281.071 153.669 C 281.154 153.351,281.357 153.249,281.910 153.249 C 282.463 153.249,282.665 153.148,282.748 152.830 C 282.832 152.512,283.034 152.411,283.587 152.411 C 284.140 152.411,284.343 152.309,284.426 151.992 C 284.508 151.677,284.712 151.572,285.245 151.572 C 285.814 151.572,285.954 151.490,285.954 151.153 C 285.954 150.812,286.094 150.734,286.703 150.734 C 287.114 150.734,287.593 150.592,287.766 150.419 C 287.939 150.246,288.292 150.105,288.550 150.105 C 288.808 150.105,289.207 149.930,289.436 149.717 C 289.665 149.503,290.202 149.263,290.629 149.183 C 291.101 149.095,291.405 148.918,291.405 148.733 C 291.405 148.522,291.639 148.428,292.158 148.428 C 292.735 148.428,292.937 148.330,293.021 148.008 C 293.104 147.691,293.307 147.589,293.860 147.589 C 294.412 147.589,294.615 147.488,294.698 147.170 C 294.781 146.854,294.984 146.751,295.524 146.751 C 295.967 146.751,296.286 146.631,296.360 146.436 C 296.430 146.254,296.744 146.122,297.107 146.122 C 297.557 146.122,297.764 146.004,297.843 145.702 C 297.929 145.374,298.129 145.283,298.767 145.283 C 299.441 145.283,299.581 145.211,299.581 144.864 C 299.581 144.522,299.720 144.444,300.334 144.444 C 300.911 144.444,301.113 144.346,301.197 144.025 C 301.280 143.710,301.483 143.606,302.016 143.606 C 302.586 143.606,302.725 143.523,302.725 143.187 C 302.725 142.842,302.865 142.767,303.514 142.767 C 304.075 142.767,304.377 142.647,304.564 142.348 C 304.741 142.064,305.052 141.929,305.532 141.929 C 305.920 141.929,306.347 141.797,306.481 141.636 C 306.614 141.475,307.055 141.281,307.461 141.205 C 307.866 141.129,308.250 140.931,308.314 140.764 C 308.380 140.594,308.704 140.461,309.057 140.461 C 309.507 140.461,309.714 140.343,309.793 140.042 C 309.878 139.713,310.078 139.623,310.716 139.623 C 311.391 139.623,311.530 139.551,311.530 139.203 C 311.530 138.862,311.670 138.784,312.284 138.784 C 312.861 138.784,313.063 138.686,313.147 138.365 C 313.229 138.049,313.433 137.945,313.972 137.945 C 314.415 137.945,314.734 137.826,314.809 137.631 C 314.879 137.449,315.193 137.317,315.556 137.317 C 316.006 137.317,316.213 137.198,316.291 136.897 C 316.377 136.569,316.577 136.478,317.215 136.478 C 317.890 136.478,318.029 136.406,318.029 136.059 C 318.029 135.730,318.169 135.639,318.678 135.639 C 319.150 135.639,319.356 135.525,319.436 135.220 C 319.522 134.892,319.722 134.801,320.360 134.801 C 320.894 134.801,321.318 134.657,321.593 134.382 C 321.832 134.143,322.292 133.962,322.661 133.962 C 323.133 133.962,323.340 133.848,323.419 133.543 C 323.502 133.227,323.705 133.124,324.245 133.124 C 324.665 133.124,325.007 133.002,325.074 132.830 C 325.136 132.668,325.515 132.474,325.917 132.399 C 326.318 132.324,326.699 132.126,326.763 131.959 C 326.828 131.789,327.153 131.656,327.505 131.656 C 327.955 131.656,328.162 131.538,328.241 131.237 C 328.327 130.908,328.527 130.818,329.165 130.818 C 329.839 130.818,329.979 130.746,329.979 130.398 C 329.979 130.057,330.119 129.979,330.732 129.979 C 331.309 129.979,331.511 129.881,331.595 129.560 C 331.678 129.245,331.881 129.140,332.414 129.140 C 332.905 129.140,333.124 129.044,333.124 128.826 C 333.124 128.605,333.347 128.512,333.877 128.512 C 334.447 128.512,334.656 128.412,334.737 128.104 C 334.814 127.811,335.059 127.678,335.608 127.632 C 336.202 127.582,336.359 127.486,336.312 127.201 C 336.253 126.853,336.792 126.703,337.683 126.819 C 337.828 126.837,337.945 126.660,337.945 126.424 C 337.945 126.064,338.079 125.996,338.784 125.996 C 339.343 125.996,339.762 125.856,340.042 125.577 C 340.277 125.342,340.741 125.157,341.097 125.157 C 341.448 125.157,341.783 125.026,341.845 124.863 C 341.907 124.702,342.272 124.511,342.657 124.438 C 343.041 124.366,343.404 124.180,343.464 124.025 C 343.524 123.870,343.910 123.679,344.323 123.602 C 344.775 123.517,345.073 123.340,345.073 123.156 C 345.073 122.946,345.307 122.851,345.827 122.851 C 346.404 122.851,346.606 122.753,346.690 122.432 C 346.773 122.114,346.976 122.013,347.528 122.013 C 348.081 122.013,348.284 121.911,348.367 121.593 C 348.449 121.278,348.653 121.174,349.186 121.174 C 349.755 121.174,349.895 121.091,349.895 120.755 C 349.895 120.405,350.035 120.335,350.734 120.335 C 351.339 120.335,351.572 120.248,351.572 120.021 C 351.572 119.800,351.796 119.706,352.326 119.706 C 352.903 119.706,353.105 119.608,353.189 119.287 C 353.271 118.972,353.475 118.868,354.008 118.868 C 354.577 118.868,354.717 118.785,354.717 118.449 C 354.717 118.099,354.857 118.029,355.556 118.029 C 356.254 118.029,356.394 117.959,356.394 117.610 C 356.394 117.261,356.534 117.191,357.233 117.191 C 357.792 117.191,358.211 117.051,358.491 116.771 C 358.721 116.541,359.134 116.352,359.408 116.352 C 359.682 116.352,360.016 116.221,360.150 116.060 C 360.283 115.899,360.710 115.708,361.098 115.635 C 361.487 115.562,361.853 115.375,361.913 115.220 C 361.972 115.065,362.359 114.874,362.772 114.797 C 363.224 114.712,363.522 114.535,363.522 114.351 C 363.522 114.141,363.756 114.046,364.275 114.046 C 364.852 114.046,365.054 113.948,365.138 113.627 C 365.220 113.314,365.424 113.208,365.943 113.208 C 366.454 113.208,366.674 113.096,366.771 112.788 C 366.871 112.476,367.089 112.369,367.624 112.369 C 368.204 112.369,368.344 112.288,368.344 111.950 C 368.344 111.600,368.484 111.530,369.182 111.530 C 369.788 111.530,370.021 111.443,370.021 111.216 C 370.021 110.995,370.244 110.901,370.774 110.901 C 371.351 110.901,371.553 110.803,371.637 110.482 C 371.720 110.167,371.923 110.063,372.456 110.063 C 373.026 110.063,373.166 109.980,373.166 109.644 C 373.166 109.294,373.305 109.224,374.002 109.224 C 374.612 109.224,374.910 109.111,375.101 108.805 C 375.260 108.550,375.590 108.386,375.941 108.386 C 376.260 108.386,376.702 108.204,376.925 107.981 C 377.148 107.758,377.643 107.546,378.025 107.509 C 378.879 107.427,379.144 105.433,378.322 105.275 C 378.103 105.233,377.727 105.015,377.488 104.792 C 377.248 104.568,376.861 104.400,376.628 104.417 C 375.703 104.487,375.427 104.403,375.547 104.091 C 375.612 103.919,375.599 103.789,375.517 103.801 C 374.658 103.929,374.004 103.736,374.004 103.354 C 374.004 103.005,373.864 102.935,373.166 102.935 C 372.467 102.935,372.327 102.865,372.327 102.516 C 372.327 102.179,372.187 102.096,371.618 102.096 C 371.085 102.096,370.881 101.992,370.799 101.677 C 370.716 101.359,370.513 101.258,369.960 101.258 C 369.408 101.258,369.205 101.156,369.122 100.839 C 369.039 100.521,368.836 100.419,368.283 100.419 C 367.730 100.419,367.528 100.318,367.444 100.000 C 367.366 99.699,367.159 99.581,366.709 99.581 C 366.346 99.581,366.032 99.449,365.962 99.266 C 365.887 99.072,365.568 98.952,365.125 98.952 C 364.586 98.952,364.382 98.849,364.300 98.532 C 364.217 98.215,364.014 98.113,363.461 98.113 C 362.909 98.113,362.706 98.012,362.623 97.694 C 362.543 97.389,362.337 97.275,361.864 97.275 C 361.495 97.275,361.035 97.094,360.797 96.855 C 360.566 96.625,360.227 96.436,360.044 96.436 C 359.860 96.436,359.470 96.247,359.177 96.017 C 358.881 95.784,358.326 95.597,357.932 95.597 C 357.492 95.597,357.173 95.477,357.099 95.283 C 357.024 95.089,356.706 94.969,356.267 94.969 C 355.695 94.969,355.556 94.886,355.556 94.549 C 355.556 94.213,355.416 94.130,354.846 94.130 C 354.313 94.130,354.110 94.026,354.027 93.711 C 353.944 93.393,353.741 93.291,353.189 93.291 C 352.636 93.291,352.433 93.190,352.350 92.872 C 352.266 92.551,352.064 92.453,351.487 92.453 C 350.874 92.453,350.734 92.375,350.734 92.034 C 350.734 91.695,350.594 91.614,350.007 91.614 C 349.496 91.614,349.215 91.490,349.057 91.195 C 348.913 90.926,348.618 90.776,348.233 90.776 C 347.894 90.776,347.582 90.639,347.513 90.461 C 347.439 90.267,347.120 90.147,346.677 90.147 C 346.137 90.147,345.934 90.043,345.851 89.727 C 345.772 89.423,345.565 89.308,345.100 89.308 C 344.674 89.308,344.384 89.168,344.235 88.889 C 344.087 88.613,343.796 88.470,343.382 88.470 C 343.029 88.470,342.703 88.338,342.638 88.168 C 342.575 88.002,342.224 87.801,341.859 87.721 C 341.494 87.642,340.970 87.400,340.695 87.184 C 340.420 86.969,339.878 86.792,339.490 86.792 C 339.002 86.792,338.784 86.695,338.784 86.478 C 338.784 86.251,338.551 86.164,337.945 86.164 C 337.247 86.164,337.107 86.094,337.107 85.744 C 337.107 85.405,336.967 85.325,336.373 85.325 C 335.779 85.325,335.639 85.245,335.639 84.906 C 335.639 84.558,335.500 84.486,334.825 84.486 C 334.187 84.486,333.987 84.396,333.902 84.067 C 333.818 83.746,333.616 83.648,333.038 83.648 C 332.519 83.648,332.285 83.553,332.285 83.343 C 332.285 83.158,331.985 82.981,331.523 82.895 C 331.103 82.816,330.584 82.576,330.370 82.361 C 330.155 82.146,329.762 81.971,329.497 81.971 C 329.232 81.971,328.903 81.859,328.767 81.723 C 328.631 81.587,328.117 81.420,327.625 81.352 C 326.947 81.258,326.737 81.140,326.759 80.865 C 326.782 80.579,326.616 80.503,325.973 80.503 C 325.297 80.503,325.157 80.431,325.157 80.084 C 325.157 79.766,325.017 79.665,324.579 79.665 C 324.227 79.665,323.897 79.500,323.738 79.245 C 323.594 79.015,323.285 78.826,323.050 78.826 C 322.816 78.826,322.421 78.637,322.174 78.407 C 321.912 78.162,321.434 77.987,321.030 77.987 C 320.552 77.987,320.335 77.889,320.335 77.673 C 320.335 77.455,320.117 77.358,319.626 77.358 C 319.093 77.358,318.890 77.254,318.807 76.939 C 318.723 76.618,318.521 76.520,317.944 76.520 C 317.331 76.520,317.191 76.442,317.191 76.101 C 317.191 75.751,317.051 75.681,316.352 75.681 C 315.653 75.681,315.514 75.611,315.514 75.262 C 315.514 74.923,315.374 74.843,314.780 74.843 C 314.292 74.843,314.046 74.745,314.046 74.551 C 314.046 74.213,313.600 74.004,312.876 74.004 C 312.567 74.004,312.369 73.882,312.369 73.692 C 312.369 73.491,312.075 73.333,311.543 73.248 C 311.089 73.176,310.668 72.986,310.607 72.826 C 310.543 72.661,310.199 72.537,309.805 72.537 C 309.343 72.537,309.029 72.399,308.854 72.117 C 308.704 71.877,308.365 71.698,308.061 71.698 C 307.769 71.698,307.327 71.509,307.080 71.279 C 306.832 71.048,306.371 70.860,306.054 70.860 C 305.663 70.860,305.436 70.725,305.346 70.440 C 305.242 70.112,305.029 70.021,304.369 70.021 C 303.701 70.021,303.502 69.933,303.415 69.602 C 303.339 69.309,303.129 69.182,302.723 69.182 C 302.399 69.182,302.088 69.043,302.021 68.868 C 301.945 68.671,301.624 68.553,301.160 68.553 C 300.559 68.553,300.419 68.474,300.419 68.134 C 300.419 67.785,300.280 67.715,299.581 67.715 C 298.882 67.715,298.742 67.645,298.742 67.296 C 298.742 66.957,298.602 66.876,298.016 66.876 C 297.504 66.876,297.223 66.752,297.065 66.457 C 296.921 66.188,296.626 66.038,296.241 66.038 C 295.912 66.038,295.591 65.905,295.529 65.743 C 295.467 65.581,295.117 65.383,294.752 65.302 C 294.386 65.222,293.908 64.977,293.689 64.759 C 293.470 64.540,293.067 64.361,292.793 64.361 C 292.519 64.361,292.177 64.219,292.034 64.046 C 291.890 63.873,291.516 63.732,291.202 63.732 C 290.888 63.732,290.460 63.543,290.252 63.312 C 290.043 63.082,289.666 62.893,289.413 62.893 C 289.160 62.893,288.783 62.704,288.574 62.474 C 288.339 62.214,287.929 62.055,287.494 62.055 C 286.932 62.055,286.792 61.971,286.792 61.635 C 286.792 61.288,286.653 61.216,285.978 61.216 C 285.341 61.216,285.140 61.125,285.055 60.797 C 284.975 60.491,284.769 60.377,284.296 60.377 C 283.860 60.377,283.648 60.275,283.648 60.063 C 283.648 59.836,283.415 59.748,282.809 59.748 C 282.110 59.748,281.971 59.679,281.971 59.329 C 281.971 58.991,281.831 58.910,281.251 58.910 C 280.716 58.910,280.497 58.803,280.398 58.491 C 280.300 58.182,280.081 58.071,279.570 58.071 C 279.051 58.071,278.847 57.965,278.765 57.652 C 278.681 57.331,278.479 57.233,277.902 57.233 C 277.375 57.233,277.149 57.139,277.149 56.921 C 277.149 56.719,276.853 56.561,276.310 56.475 C 275.804 56.394,275.472 56.226,275.472 56.053 C 275.472 55.866,275.224 55.765,274.762 55.765 C 274.229 55.765,274.026 55.661,273.943 55.346 C 273.861 55.032,273.657 54.927,273.131 54.927 C 272.655 54.927,272.343 54.791,272.166 54.507 C 271.999 54.240,271.677 54.088,271.277 54.088 C 270.868 54.088,270.650 53.982,270.650 53.783 C 270.650 53.598,270.349 53.422,269.887 53.335 C 269.468 53.256,268.949 53.016,268.734 52.801 C 268.520 52.587,268.123 52.411,267.852 52.411 C 267.582 52.411,267.194 52.227,266.991 52.003 C 266.787 51.777,266.282 51.567,265.858 51.531 C 265.384 51.492,265.114 51.368,265.147 51.205 C 265.182 51.031,264.920 50.943,264.361 50.943 C 263.662 50.943,263.522 50.874,263.522 50.524 C 263.522 50.185,263.382 50.105,262.788 50.105 C 262.194 50.105,262.055 50.025,262.055 49.686 C 262.055 49.338,261.915 49.266,261.240 49.266 C 260.603 49.266,260.403 49.175,260.317 48.847 C 260.233 48.526,260.031 48.428,259.454 48.428 C 258.934 48.428,258.700 48.333,258.700 48.123 C 258.700 47.939,258.402 47.762,257.950 47.677 C 257.537 47.600,257.149 47.407,257.089 47.248 C 257.025 47.083,256.678 46.960,256.274 46.960 C 255.785 46.960,255.502 46.832,255.346 46.541 C 255.203 46.274,254.907 46.122,254.532 46.122 C 254.208 46.122,253.773 45.933,253.564 45.702 C 253.354 45.471,252.918 45.283,252.590 45.283 C 252.222 45.283,251.895 45.123,251.733 44.864 C 251.547 44.565,251.244 44.444,250.683 44.444 C 250.035 44.444,249.895 44.370,249.895 44.025 C 249.895 43.688,249.755 43.606,249.186 43.606 C 248.653 43.606,248.449 43.502,248.367 43.187 C 248.283 42.865,248.081 42.767,247.504 42.767 C 246.974 42.767,246.751 42.674,246.751 42.453 C 246.751 42.235,246.532 42.138,246.041 42.138 C 245.508 42.138,245.305 42.034,245.222 41.719 C 245.139 41.401,244.936 41.300,244.384 41.300 C 243.831 41.300,243.628 41.198,243.545 40.881 C 243.462 40.563,243.259 40.461,242.707 40.461 C 242.154 40.461,241.951 40.360,241.868 40.042 C 241.784 39.721,241.582 39.623,241.005 39.623 C 240.485 39.623,240.252 39.528,240.252 39.318 C 240.252 39.136,239.960 38.958,239.532 38.878 C 239.137 38.804,238.762 38.611,238.700 38.449 C 238.635 38.279,238.296 38.155,237.898 38.155 C 237.435 38.155,237.122 38.017,236.946 37.736 C 236.798 37.499,236.457 37.317,236.162 37.317 C 235.874 37.317,235.451 37.128,235.220 36.897 C 234.990 36.667,234.608 36.478,234.373 36.478 C 234.137 36.478,233.742 36.289,233.495 36.059 C 233.208 35.791,232.755 35.639,232.246 35.639 C 231.581 35.639,231.447 35.568,231.447 35.211 C 231.447 34.975,231.329 34.798,231.184 34.816 C 230.449 34.912,230.018 34.764,229.918 34.382 C 229.834 34.060,229.632 33.962,229.055 33.962 C 228.525 33.962,228.302 33.869,228.302 33.648 C 228.302 33.430,228.083 33.333,227.593 33.333 C 227.060 33.333,226.856 33.229,226.774 32.914 C 226.691 32.596,226.488 32.495,225.935 32.495 C 225.382 32.495,225.180 32.393,225.096 32.075 C 225.013 31.758,224.811 31.656,224.258 31.656 C 223.705 31.656,223.502 31.555,223.419 31.237 C 223.339 30.930,223.133 30.818,222.655 30.818 C 222.278 30.818,221.950 30.689,221.884 30.516 C 221.820 30.350,221.469 30.149,221.104 30.070 C 220.739 29.990,220.254 29.796,220.027 29.638 C 219.799 29.480,219.352 29.350,219.033 29.350 C 218.679 29.350,218.350 29.186,218.190 28.931 C 218.004 28.632,217.701 28.512,217.140 28.512 C 216.572 28.512,216.352 28.422,216.352 28.190 C 216.352 28.014,216.187 27.808,215.985 27.733 C 215.784 27.657,215.495 27.424,215.345 27.215 C 215.191 27.001,214.810 26.834,214.476 26.834 C 214.149 26.834,213.829 26.698,213.765 26.531 C 213.701 26.365,213.322 26.167,212.922 26.092 C 212.523 26.017,211.997 25.771,211.754 25.544 C 211.511 25.318,211.149 25.149,210.949 25.169 C 210.276 25.237,210.063 25.158,210.063 24.843 C 210.063 24.616,209.830 24.528,209.224 24.528 C 208.526 24.528,208.386 24.458,208.386 24.109 C 208.386 23.760,208.246 23.690,207.547 23.690 C 206.848 23.690,206.709 23.620,206.709 23.270 C 206.709 22.934,206.569 22.851,205.999 22.851 C 205.466 22.851,205.263 22.747,205.180 22.432 C 205.096 22.111,204.894 22.013,204.317 22.013 C 203.813 22.013,203.564 21.916,203.564 21.721 C 203.564 21.399,203.123 21.174,202.492 21.174 C 202.267 21.174,202.029 21.032,201.963 20.860 C 201.764 20.342,198.952 20.411,198.952 20.933 M200.463 30.472 C 200.414 30.746,200.576 30.818,201.249 30.818 C 201.957 30.818,202.096 30.887,202.096 31.237 C 202.096 31.570,202.236 31.656,202.780 31.656 C 203.236 31.656,203.550 31.795,203.725 32.075 C 203.888 32.337,204.214 32.495,204.592 32.495 C 204.936 32.495,205.248 32.630,205.317 32.809 C 205.392 33.004,205.711 33.124,206.153 33.124 C 206.693 33.124,206.896 33.227,206.979 33.543 C 207.062 33.861,207.265 33.962,207.818 33.962 C 208.370 33.962,208.573 34.064,208.656 34.382 C 208.736 34.688,208.942 34.801,209.421 34.801 C 209.797 34.801,210.125 34.929,210.192 35.102 C 210.255 35.268,210.606 35.469,210.971 35.549 C 211.336 35.629,211.860 35.870,212.135 36.086 C 212.410 36.302,212.818 36.478,213.041 36.478 C 213.264 36.478,213.589 36.619,213.762 36.792 C 213.935 36.965,214.330 37.107,214.640 37.107 C 214.976 37.107,215.309 37.276,215.465 37.526 C 215.648 37.819,215.954 37.945,216.478 37.945 C 217.054 37.945,217.256 38.044,217.340 38.365 C 217.422 38.680,217.626 38.784,218.159 38.784 C 218.728 38.784,218.868 38.867,218.868 39.203 C 218.868 39.553,219.008 39.623,219.706 39.623 C 220.405 39.623,220.545 39.693,220.545 40.042 C 220.545 40.368,220.685 40.461,221.174 40.461 C 221.523 40.461,221.989 40.648,222.222 40.881 C 222.453 41.111,222.867 41.300,223.143 41.300 C 223.419 41.300,223.699 41.441,223.766 41.614 C 223.840 41.809,224.159 41.929,224.602 41.929 C 225.142 41.929,225.345 42.032,225.428 42.348 C 225.512 42.669,225.714 42.767,226.291 42.767 C 226.795 42.767,227.044 42.864,227.044 43.059 C 227.044 43.363,227.479 43.606,228.024 43.606 C 228.198 43.606,228.580 43.795,228.874 44.025 C 229.167 44.256,229.609 44.444,229.856 44.444 C 230.103 44.444,230.442 44.633,230.608 44.864 C 230.780 45.102,231.151 45.283,231.467 45.283 C 231.773 45.283,232.142 45.425,232.285 45.597 C 232.433 45.776,232.890 45.912,233.339 45.912 C 234.029 45.912,234.118 45.967,234.023 46.331 C 233.926 46.700,234.017 46.751,234.776 46.751 C 235.500 46.751,235.639 46.818,235.639 47.170 C 235.639 47.519,235.779 47.589,236.478 47.589 C 237.177 47.589,237.317 47.659,237.317 48.008 C 237.317 48.342,237.456 48.428,238.000 48.428 C 238.456 48.428,238.770 48.567,238.945 48.847 C 239.112 49.114,239.434 49.266,239.834 49.266 C 240.250 49.266,240.461 49.372,240.461 49.578 C 240.461 49.779,240.755 49.937,241.287 50.022 C 241.741 50.095,242.163 50.285,242.224 50.444 C 242.285 50.603,242.618 50.734,242.963 50.734 C 243.377 50.734,243.668 50.877,243.816 51.153 C 243.956 51.416,244.254 51.572,244.615 51.572 C 244.931 51.572,245.351 51.761,245.549 51.992 C 245.746 52.222,246.130 52.411,246.402 52.411 C 246.673 52.411,247.066 52.600,247.275 52.830 C 247.484 53.062,247.920 53.249,248.249 53.249 C 248.616 53.249,248.943 53.410,249.105 53.669 C 249.289 53.964,249.594 54.088,250.133 54.088 C 250.620 54.088,250.942 54.202,251.019 54.403 C 251.091 54.589,251.406 54.717,251.795 54.717 C 252.274 54.717,252.480 54.830,252.560 55.136 C 252.642 55.451,252.846 55.556,253.379 55.556 C 253.948 55.556,254.088 55.638,254.088 55.975 C 254.088 56.313,254.228 56.394,254.808 56.394 C 255.343 56.394,255.561 56.501,255.660 56.813 C 255.759 57.125,255.978 57.233,256.513 57.233 C 256.988 57.233,257.233 57.332,257.233 57.525 C 257.233 57.863,257.679 58.071,258.403 58.071 C 258.712 58.071,258.910 58.193,258.910 58.383 C 258.910 58.584,259.203 58.742,259.735 58.827 C 260.190 58.900,260.611 59.090,260.672 59.249 C 260.733 59.408,261.047 59.539,261.369 59.539 C 261.727 59.539,262.055 59.701,262.215 59.958 C 262.364 60.195,262.704 60.377,263.000 60.377 C 263.287 60.377,263.711 60.566,263.941 60.797 C 264.172 61.027,264.623 61.216,264.943 61.216 C 265.285 61.216,265.651 61.389,265.828 61.635 C 266.005 61.881,266.371 62.055,266.711 62.055 C 267.065 62.055,267.394 62.218,267.554 62.474 C 267.742 62.776,268.043 62.893,268.626 62.893 C 269.261 62.893,269.411 62.961,269.316 63.208 C 269.222 63.454,269.373 63.522,270.013 63.522 C 270.647 63.522,270.861 63.616,270.964 63.941 C 271.063 64.253,271.282 64.361,271.817 64.361 C 272.397 64.361,272.537 64.442,272.537 64.780 C 272.537 65.117,272.676 65.199,273.246 65.199 C 273.779 65.199,273.983 65.303,274.065 65.618 C 274.149 65.940,274.351 66.038,274.928 66.038 C 275.432 66.038,275.681 66.134,275.681 66.330 C 275.681 66.668,276.128 66.876,276.852 66.876 C 277.155 66.876,277.358 66.998,277.358 67.181 C 277.358 67.365,277.657 67.542,278.109 67.627 C 278.522 67.704,278.909 67.897,278.970 68.056 C 279.031 68.216,279.374 68.344,279.741 68.344 C 280.175 68.344,280.492 68.488,280.664 68.763 C 280.812 69.000,281.153 69.182,281.448 69.182 C 281.736 69.182,282.159 69.371,282.390 69.602 C 282.621 69.832,282.998 70.021,283.229 70.021 C 283.459 70.021,283.836 70.210,284.067 70.440 C 284.298 70.671,284.708 70.860,284.978 70.860 C 285.248 70.860,285.640 71.048,285.849 71.279 C 286.058 71.509,286.443 71.698,286.705 71.698 C 286.967 71.698,287.323 71.840,287.496 72.013 C 287.669 72.186,288.148 72.327,288.559 72.327 C 289.168 72.327,289.308 72.405,289.308 72.746 C 289.308 73.083,289.448 73.166,290.017 73.166 C 290.550 73.166,290.754 73.270,290.836 73.585 C 290.920 73.906,291.122 74.004,291.699 74.004 C 292.313 74.004,292.453 74.082,292.453 74.423 C 292.453 74.771,292.593 74.843,293.267 74.843 C 293.922 74.843,294.104 74.930,294.198 75.290 C 294.283 75.615,294.430 75.707,294.739 75.626 C 295.010 75.555,295.359 75.696,295.706 76.017 C 296.004 76.294,296.469 76.520,296.739 76.520 C 297.009 76.520,297.284 76.661,297.350 76.834 C 297.425 77.029,297.744 77.149,298.187 77.149 C 298.727 77.149,298.930 77.252,299.013 77.568 C 299.090 77.865,299.298 77.987,299.724 77.987 C 300.067 77.987,300.481 78.168,300.685 78.407 C 300.883 78.637,301.271 78.826,301.548 78.826 C 301.825 78.826,302.104 78.962,302.168 79.129 C 302.232 79.295,302.613 79.494,303.015 79.569 C 303.417 79.644,303.908 79.885,304.107 80.105 C 304.305 80.324,304.665 80.506,304.907 80.510 C 305.148 80.513,305.529 80.655,305.753 80.824 C 305.977 80.994,306.377 81.132,306.642 81.132 C 306.907 81.132,307.242 81.321,307.386 81.551 C 307.570 81.846,307.875 81.971,308.412 81.971 C 308.999 81.971,309.201 82.067,309.285 82.390 C 309.369 82.711,309.571 82.809,310.148 82.809 C 310.762 82.809,310.901 82.887,310.901 83.229 C 310.901 83.565,311.041 83.648,311.611 83.648 C 312.144 83.648,312.347 83.752,312.430 84.067 C 312.514 84.388,312.716 84.486,313.293 84.486 C 313.823 84.486,314.046 84.580,314.046 84.801 C 314.046 85.028,314.279 85.115,314.885 85.115 C 315.584 85.115,315.723 85.185,315.723 85.535 C 315.723 85.872,315.863 85.954,316.443 85.954 C 316.978 85.954,317.197 86.061,317.296 86.373 C 317.393 86.681,317.613 86.792,318.124 86.792 C 318.643 86.792,318.847 86.899,318.929 87.212 C 319.012 87.530,319.215 87.631,319.767 87.631 C 320.320 87.631,320.523 87.732,320.606 88.050 C 320.686 88.357,320.892 88.470,321.371 88.470 C 321.754 88.470,322.075 88.598,322.144 88.778 C 322.209 88.948,322.591 89.149,322.993 89.224 C 323.395 89.299,323.773 89.491,323.834 89.649 C 323.897 89.815,324.246 89.937,324.656 89.937 C 325.124 89.937,325.367 90.037,325.367 90.229 C 325.367 90.559,325.811 90.776,326.487 90.776 C 326.738 90.776,327.061 90.964,327.205 91.195 C 327.353 91.432,327.694 91.614,327.989 91.614 C 328.276 91.614,328.700 91.803,328.931 92.034 C 329.161 92.264,329.565 92.453,329.828 92.453 C 330.091 92.453,330.442 92.642,330.608 92.872 C 330.780 93.110,331.151 93.291,331.467 93.291 C 331.773 93.291,332.142 93.433,332.285 93.606 C 332.429 93.779,332.765 93.920,333.033 93.920 C 333.300 93.920,333.647 94.102,333.802 94.324 C 333.981 94.580,334.390 94.753,334.915 94.796 C 335.482 94.842,335.744 94.963,335.744 95.178 C 335.744 95.390,336.000 95.514,336.530 95.558 C 337.146 95.609,337.317 95.711,337.317 96.029 C 337.317 96.362,337.465 96.436,338.132 96.436 C 338.780 96.436,338.941 96.511,338.918 96.803 C 338.896 97.080,339.075 97.185,339.654 97.234 C 340.203 97.279,340.448 97.412,340.525 97.705 C 340.606 98.014,340.815 98.113,341.385 98.113 C 341.915 98.113,342.138 98.206,342.138 98.428 C 342.138 98.645,342.357 98.742,342.848 98.742 C 343.381 98.742,343.584 98.846,343.667 99.161 C 343.751 99.483,343.953 99.581,344.530 99.581 C 345.143 99.581,345.283 99.658,345.283 100.000 C 345.283 100.338,345.423 100.419,346.003 100.419 C 346.538 100.419,346.756 100.527,346.855 100.839 C 346.954 101.151,347.173 101.258,347.708 101.258 C 348.183 101.258,348.428 101.357,348.428 101.550 C 348.428 101.888,348.874 102.096,349.598 102.096 C 349.909 102.096,350.105 102.218,350.105 102.411 C 350.105 102.629,350.325 102.725,350.824 102.725 C 351.360 102.725,351.578 102.833,351.677 103.145 C 351.775 103.453,351.994 103.564,352.505 103.564 C 353.024 103.564,353.228 103.670,353.310 103.983 C 353.393 104.301,353.596 104.403,354.149 104.403 C 354.701 104.403,354.904 104.504,354.987 104.822 C 355.065 105.117,355.273 105.241,355.695 105.241 C 356.066 105.241,356.393 105.400,356.555 105.660 C 356.722 105.928,357.044 106.080,357.444 106.080 C 357.932 106.080,358.071 106.173,358.071 106.499 C 358.071 106.838,357.932 106.918,357.338 106.918 C 356.744 106.918,356.604 106.998,356.604 107.338 C 356.604 107.678,356.464 107.757,355.863 107.757 C 355.427 107.757,355.077 107.876,355.012 108.047 C 354.951 108.206,354.529 108.396,354.075 108.468 C 353.543 108.553,353.249 108.711,353.249 108.912 C 353.249 109.200,352.888 109.321,352.265 109.242 C 352.127 109.225,351.911 109.403,351.786 109.637 C 351.633 109.923,351.346 110.063,350.916 110.063 C 350.452 110.063,350.245 110.178,350.166 110.482 C 350.082 110.800,349.880 110.901,349.327 110.901 C 348.774 110.901,348.572 111.003,348.488 111.321 C 348.406 111.637,348.202 111.740,347.663 111.740 C 347.220 111.740,346.901 111.860,346.826 112.055 C 346.756 112.237,346.443 112.369,346.080 112.369 C 345.630 112.369,345.423 112.487,345.344 112.788 C 345.262 113.100,345.058 113.208,344.549 113.208 C 344.041 113.208,343.836 113.315,343.755 113.627 C 343.671 113.948,343.469 114.046,342.892 114.046 C 342.278 114.046,342.138 114.124,342.138 114.465 C 342.138 114.810,341.999 114.885,341.350 114.885 C 340.789 114.885,340.487 115.005,340.300 115.304 C 340.133 115.572,339.811 115.723,339.409 115.723 C 339.039 115.723,338.632 115.896,338.421 116.143 C 338.220 116.377,337.803 116.562,337.473 116.562 C 337.143 116.562,336.831 116.700,336.763 116.876 C 336.697 117.049,336.417 117.191,336.141 117.191 C 335.865 117.191,335.451 117.379,335.220 117.610 C 334.990 117.841,334.620 118.029,334.399 118.029 C 333.774 118.029,333.333 118.255,333.333 118.576 C 333.333 118.745,333.120 118.868,332.826 118.868 C 332.103 118.868,331.656 119.076,331.656 119.414 C 331.656 119.607,331.412 119.706,330.937 119.706 C 330.401 119.706,330.183 119.814,330.084 120.126 C 329.985 120.438,329.767 120.545,329.231 120.545 C 328.731 120.545,328.512 120.641,328.512 120.860 C 328.512 121.052,328.315 121.174,328.005 121.174 C 327.281 121.174,326.834 121.383,326.834 121.721 C 326.834 121.916,326.585 122.013,326.081 122.013 C 325.504 122.013,325.302 122.111,325.218 122.432 C 325.136 122.747,324.932 122.851,324.399 122.851 C 324.009 122.851,323.701 122.922,323.715 123.008 C 323.798 123.536,323.623 123.690,322.936 123.690 C 322.359 123.690,322.157 123.788,322.073 124.109 C 321.992 124.419,321.787 124.528,321.287 124.528 C 320.876 124.528,320.461 124.693,320.231 124.948 C 320.022 125.178,319.651 125.367,319.406 125.367 C 319.161 125.367,318.775 125.496,318.548 125.655 C 318.320 125.813,317.821 126.010,317.439 126.094 C 317.056 126.177,316.692 126.378,316.630 126.540 C 316.568 126.702,316.291 126.834,316.015 126.834 C 315.739 126.834,315.325 127.023,315.094 127.254 C 314.864 127.484,314.440 127.673,314.153 127.673 C 313.857 127.673,313.517 127.855,313.369 128.092 C 313.206 128.352,312.880 128.512,312.509 128.512 C 312.087 128.512,311.878 128.635,311.801 128.931 C 311.715 129.259,311.515 129.350,310.877 129.350 C 310.293 129.350,310.063 129.439,310.063 129.665 C 310.063 129.874,309.853 129.979,309.436 129.979 C 309.036 129.979,308.714 130.131,308.547 130.398 C 308.384 130.658,308.058 130.818,307.687 130.818 C 307.265 130.818,307.056 130.941,306.979 131.237 C 306.898 131.548,306.693 131.656,306.184 131.656 C 305.684 131.656,305.471 131.765,305.394 132.061 C 305.316 132.357,305.069 132.485,304.478 132.533 C 303.843 132.585,303.682 132.678,303.730 132.966 C 303.780 133.263,303.638 133.333,302.990 133.333 C 302.429 133.333,302.098 133.459,301.887 133.753 C 301.721 133.983,301.361 134.172,301.087 134.172 C 300.813 134.172,300.338 134.303,300.032 134.463 C 299.726 134.623,299.240 134.858,298.952 134.985 C 298.664 135.113,298.286 135.306,298.113 135.416 C 297.940 135.525,297.539 135.669,297.222 135.736 C 296.905 135.802,296.646 135.997,296.646 136.168 C 296.646 136.384,296.418 136.478,295.892 136.478 C 295.315 136.478,295.113 136.576,295.029 136.897 C 294.946 137.215,294.743 137.317,294.191 137.317 C 293.638 137.317,293.435 137.418,293.352 137.736 C 293.270 138.052,293.066 138.155,292.527 138.155 C 292.084 138.155,291.765 138.275,291.690 138.470 C 291.620 138.652,291.306 138.784,290.943 138.784 C 290.493 138.784,290.286 138.902,290.207 139.203 C 290.124 139.521,289.922 139.623,289.369 139.623 C 288.823 139.623,288.613 139.725,288.533 140.031 C 288.457 140.323,288.211 140.456,287.662 140.502 C 287.068 140.552,286.911 140.648,286.959 140.933 C 287.008 141.226,286.868 141.300,286.269 141.300 C 285.807 141.300,285.344 141.461,285.067 141.719 C 284.819 141.950,284.414 142.138,284.165 142.138 C 283.916 142.138,283.542 142.327,283.333 142.558 C 283.125 142.788,282.697 142.977,282.383 142.977 C 282.069 142.977,281.695 143.118,281.551 143.291 C 281.408 143.464,281.126 143.606,280.925 143.606 C 280.724 143.606,280.320 143.795,280.027 144.025 C 279.733 144.256,279.351 144.444,279.177 144.444 C 278.632 144.444,278.197 144.687,278.197 144.991 C 278.197 145.186,277.948 145.283,277.444 145.283 C 276.867 145.283,276.665 145.381,276.581 145.702 C 276.498 146.020,276.295 146.122,275.742 146.122 C 275.189 146.122,274.987 146.223,274.904 146.541 C 274.821 146.857,274.618 146.960,274.078 146.960 C 273.635 146.960,273.316 147.080,273.241 147.275 C 273.171 147.457,272.858 147.589,272.495 147.589 C 272.045 147.589,271.838 147.707,271.759 148.008 C 271.676 148.323,271.473 148.428,270.940 148.428 C 270.370 148.428,270.231 148.510,270.231 148.847 C 270.231 149.196,270.091 149.266,269.392 149.266 C 268.693 149.266,268.553 149.336,268.553 149.686 C 268.553 150.030,268.414 150.105,267.765 150.105 C 267.204 150.105,266.902 150.226,266.715 150.524 C 266.548 150.792,266.226 150.943,265.824 150.943 C 265.454 150.943,265.047 151.116,264.836 151.363 C 264.635 151.597,264.218 151.782,263.888 151.782 C 263.564 151.782,263.249 151.912,263.188 152.072 C 263.127 152.231,262.716 152.419,262.274 152.490 C 261.833 152.560,261.417 152.760,261.350 152.934 C 261.278 153.122,260.964 153.249,260.574 153.249 C 260.095 153.249,259.889 153.362,259.809 153.669 C 259.726 153.987,259.523 154.088,258.971 154.088 C 258.418 154.088,258.215 154.189,258.132 154.507 C 258.050 154.820,257.846 154.927,257.327 154.927 C 256.816 154.927,256.597 155.038,256.499 155.346 C 256.400 155.658,256.182 155.765,255.646 155.765 C 255.146 155.765,254.927 155.861,254.927 156.080 C 254.927 156.301,254.703 156.394,254.173 156.394 C 253.596 156.394,253.394 156.492,253.310 156.813 C 253.228 157.128,253.024 157.233,252.491 157.233 C 251.849 157.233,251.675 157.394,251.757 157.914 C 251.771 158.001,251.427 158.071,250.994 158.071 C 250.433 158.071,250.130 158.192,249.944 158.491 C 249.777 158.758,249.455 158.910,249.055 158.910 C 248.707 158.910,248.241 159.097,248.008 159.329 C 247.778 159.560,247.354 159.748,247.067 159.748 C 246.771 159.748,246.431 159.931,246.283 160.168 C 246.111 160.443,245.794 160.587,245.360 160.587 C 244.993 160.587,244.650 160.715,244.588 160.875 C 244.528 161.033,244.140 161.226,243.727 161.304 C 243.275 161.389,242.977 161.566,242.977 161.750 C 242.977 161.960,242.743 162.055,242.224 162.055 C 241.646 162.055,241.445 162.153,241.361 162.474 C 241.277 162.792,241.075 162.893,240.522 162.893 C 239.969 162.893,239.767 162.994,239.683 163.312 C 239.600 163.630,239.397 163.732,238.845 163.732 C 238.292 163.732,238.089 163.833,238.006 164.151 C 237.924 164.466,237.720 164.570,237.187 164.570 C 236.697 164.570,236.478 164.667,236.478 164.885 C 236.478 165.104,236.258 165.199,235.752 165.199 C 235.240 165.199,234.959 165.323,234.801 165.618 C 234.654 165.893,234.362 166.038,233.955 166.038 C 233.613 166.038,233.158 166.213,232.943 166.428 C 232.728 166.643,232.209 166.883,231.790 166.962 C 231.328 167.049,231.027 167.225,231.027 167.410 C 231.027 167.689,230.512 167.823,229.806 167.727 C 229.652 167.706,229.476 167.884,229.414 168.121 C 229.328 168.451,229.132 168.553,228.585 168.553 C 228.142 168.553,227.823 168.673,227.749 168.868 C 227.682 169.041,227.410 169.182,227.144 169.182 C 226.441 169.182,225.996 169.394,225.996 169.729 C 225.996 169.916,225.762 170.021,225.347 170.021 C 224.875 170.021,224.669 170.135,224.589 170.440 C 224.503 170.770,224.303 170.860,223.656 170.860 C 222.988 170.860,222.844 170.929,222.894 171.226 C 222.943 171.516,222.781 171.608,222.126 171.661 C 221.602 171.704,221.193 171.877,221.014 172.133 C 220.858 172.355,220.500 172.537,220.217 172.537 C 219.934 172.537,219.541 172.725,219.343 172.956 C 219.146 173.187,218.729 173.375,218.417 173.375 C 218.105 173.375,217.708 173.517,217.535 173.690 C 217.362 173.863,217.025 174.004,216.786 174.004 C 216.548 174.004,216.164 174.193,215.933 174.423 C 215.694 174.662,215.234 174.843,214.865 174.843 C 214.393 174.843,214.187 174.957,214.107 175.262 C 214.025 175.575,213.821 175.681,213.302 175.681 C 212.791 175.681,212.572 175.792,212.474 176.101 C 212.375 176.413,212.157 176.520,211.621 176.520 C 211.041 176.520,210.901 176.601,210.901 176.939 C 210.901 177.287,210.762 177.358,210.085 177.358 C 209.553 177.358,209.227 177.468,209.149 177.673 C 209.080 177.852,208.767 177.987,208.421 177.987 C 208.087 177.987,207.588 178.164,207.313 178.379 C 207.038 178.595,206.515 178.837,206.150 178.916 C 205.784 178.996,205.434 179.197,205.370 179.363 C 205.305 179.533,204.978 179.665,204.621 179.665 C 204.214 179.665,203.893 179.815,203.725 180.084 C 203.550 180.364,203.236 180.503,202.780 180.503 C 202.404 180.503,202.108 180.574,202.121 180.660 C 202.220 181.284,202.042 181.342,200.024 181.342 C 198.129 181.342,197.943 181.306,197.843 180.922 C 197.765 180.626,197.557 180.503,197.131 180.503 C 196.789 180.503,196.375 180.322,196.170 180.084 C 195.959 179.837,195.552 179.665,195.180 179.665 C 194.761 179.665,194.549 179.560,194.549 179.353 C 194.549 179.150,194.250 178.993,193.694 178.904 C 193.201 178.825,192.736 178.602,192.595 178.377 C 192.456 178.154,192.111 177.987,191.788 177.987 C 191.479 177.987,191.083 177.846,190.910 177.673 C 190.737 177.500,190.259 177.358,189.847 177.358 C 189.238 177.358,189.099 177.280,189.099 176.939 C 189.099 176.603,188.959 176.520,188.389 176.520 C 187.856 176.520,187.653 176.416,187.570 176.101 C 187.486 175.779,187.284 175.681,186.707 175.681 C 186.094 175.681,185.954 175.604,185.954 175.262 C 185.954 174.928,185.814 174.843,185.267 174.843 C 184.839 174.843,184.444 174.684,184.221 174.423 C 184.023 174.193,183.635 174.004,183.358 174.004 C 183.081 174.004,182.800 173.863,182.733 173.690 C 182.659 173.495,182.340 173.375,181.897 173.375 C 181.357 173.375,181.154 173.272,181.071 172.956 C 180.991 172.651,180.785 172.537,180.313 172.537 C 179.944 172.537,179.484 172.356,179.245 172.117 C 179.015 171.887,178.605 171.698,178.334 171.698 C 178.064 171.698,177.672 171.509,177.463 171.279 C 177.255 171.048,176.838 170.860,176.538 170.860 C 176.219 170.860,175.883 170.685,175.730 170.440 C 175.552 170.156,175.241 170.021,174.761 170.021 C 174.229 170.021,174.026 169.916,173.943 169.602 C 173.859 169.281,173.657 169.182,173.080 169.182 C 172.551 169.182,172.327 169.089,172.327 168.868 C 172.327 168.650,172.108 168.553,171.618 168.553 C 171.085 168.553,170.881 168.449,170.799 168.134 C 170.716 167.816,170.513 167.715,169.960 167.715 C 169.408 167.715,169.205 167.613,169.122 167.296 C 169.039 166.978,168.836 166.876,168.283 166.876 C 167.730 166.876,167.528 166.775,167.444 166.457 C 167.364 166.151,167.159 166.038,166.680 166.038 C 166.296 166.038,165.975 165.910,165.906 165.729 C 165.841 165.559,165.459 165.359,165.057 165.283 C 164.656 165.208,164.277 165.017,164.217 164.858 C 164.155 164.698,163.812 164.570,163.445 164.570 C 163.011 164.570,162.694 164.426,162.522 164.151 C 162.361 163.892,162.034 163.732,161.666 163.732 C 161.338 163.732,160.901 163.544,160.692 163.312 C 160.482 163.081,160.046 162.893,159.718 162.893 C 159.350 162.893,159.023 162.733,158.861 162.474 C 158.690 162.199,158.372 162.055,157.940 162.055 C 157.458 162.055,157.252 161.942,157.172 161.635 C 157.088 161.314,156.886 161.216,156.309 161.216 C 155.779 161.216,155.556 161.123,155.556 160.901 C 155.556 160.684,155.337 160.587,154.846 160.587 C 154.313 160.587,154.110 160.483,154.027 160.168 C 153.944 159.850,153.741 159.748,153.189 159.748 C 152.636 159.748,152.433 159.647,152.350 159.329 C 152.267 159.011,152.064 158.910,151.512 158.910 C 150.959 158.910,150.756 158.808,150.673 158.491 C 150.590 158.173,150.387 158.071,149.834 158.071 C 149.282 158.071,149.079 157.970,148.996 157.652 C 148.916 157.346,148.710 157.233,148.231 157.233 C 147.848 157.233,147.527 157.105,147.457 156.924 C 147.392 156.754,147.021 156.556,146.633 156.483 C 146.245 156.410,145.818 156.219,145.684 156.058 C 145.551 155.897,145.184 155.765,144.871 155.765 C 144.557 155.765,144.129 155.577,143.920 155.346 C 143.712 155.115,143.293 154.927,142.991 154.927 C 142.681 154.927,142.308 154.743,142.138 154.507 C 141.928 154.215,141.596 154.088,141.044 154.088 C 140.391 154.088,140.252 154.014,140.252 153.669 C 140.252 153.332,140.112 153.249,139.542 153.249 C 139.009 153.249,138.806 153.145,138.723 152.830 C 138.639 152.509,138.437 152.411,137.860 152.411 C 137.330 152.411,137.107 152.318,137.107 152.096 C 137.107 151.879,136.888 151.782,136.398 151.782 C 135.865 151.782,135.661 151.678,135.579 151.363 C 135.496 151.045,135.293 150.943,134.740 150.943 C 134.187 150.943,133.985 150.842,133.902 150.524 C 133.818 150.203,133.616 150.105,133.038 150.105 C 132.534 150.105,132.285 150.008,132.285 149.813 C 132.285 149.501,131.848 149.266,131.266 149.266 C 131.071 149.266,130.749 149.078,130.552 148.847 C 130.354 148.616,129.994 148.428,129.752 148.428 C 129.510 148.428,129.072 148.239,128.778 148.008 C 128.485 147.778,128.093 147.586,127.907 147.582 C 127.721 147.579,127.385 147.437,127.161 147.268 C 126.937 147.099,126.510 146.960,126.212 146.960 C 125.910 146.960,125.535 146.774,125.367 146.541 C 125.155 146.247,124.824 146.122,124.263 146.122 C 123.616 146.122,123.474 146.051,123.523 145.755 C 123.573 145.461,123.407 145.375,122.694 145.323 C 121.974 145.271,121.803 145.181,121.803 144.852 C 121.803 144.529,121.656 144.444,121.094 144.444 C 120.561 144.444,120.357 144.340,120.275 144.025 C 120.196 143.724,119.989 143.606,119.539 143.606 C 119.176 143.606,118.862 143.474,118.792 143.291 C 118.716 143.094,118.396 142.977,117.931 142.977 C 117.331 142.977,117.191 142.898,117.191 142.558 C 117.191 142.210,117.051 142.138,116.377 142.138 C 115.739 142.138,115.539 142.048,115.453 141.719 C 115.379 141.436,115.167 141.300,114.800 141.300 C 114.500 141.300,114.067 141.111,113.836 140.881 C 113.606 140.650,113.178 140.461,112.887 140.461 C 112.595 140.461,112.304 140.325,112.240 140.160 C 112.176 139.994,111.826 139.793,111.460 139.713 C 111.095 139.633,110.572 139.392,110.297 139.176 C 110.022 138.960,109.585 138.784,109.327 138.784 C 109.068 138.784,108.739 138.643,108.595 138.470 C 108.452 138.297,108.125 138.155,107.868 138.155 C 107.612 138.155,107.232 137.966,107.023 137.736 C 106.788 137.476,106.377 137.317,105.942 137.317 C 105.388 137.317,105.241 137.231,105.241 136.909 C 105.241 136.580,105.070 136.490,104.350 136.438 C 103.637 136.386,103.471 136.300,103.521 136.006 C 103.569 135.718,103.433 135.639,102.890 135.639 C 102.424 135.639,102.111 135.502,101.935 135.220 C 101.768 134.953,101.447 134.801,101.046 134.801 C 100.629 134.801,100.419 134.696,100.419 134.486 C 100.419 134.259,100.186 134.172,99.581 134.172 C 98.882 134.172,98.742 134.102,98.742 133.753 C 98.742 133.414,98.602 133.333,98.016 133.333 C 97.504 133.333,97.223 133.209,97.065 132.914 C 96.934 132.669,96.626 132.495,96.324 132.495 C 96.040 132.495,95.618 132.306,95.388 132.075 C 95.157 131.845,94.780 131.656,94.549 131.656 C 94.319 131.656,93.941 131.468,93.711 131.237 C 93.480 131.006,93.099 130.818,92.863 130.818 C 92.628 130.818,92.233 130.629,91.985 130.398 C 91.738 130.168,91.310 129.979,91.036 129.979 C 90.761 129.979,90.395 129.838,90.222 129.665 C 90.049 129.492,89.679 129.350,89.400 129.350 C 89.119 129.350,88.775 129.162,88.631 128.931 C 88.444 128.632,88.142 128.512,87.581 128.512 C 86.859 128.512,86.683 128.364,86.768 127.830 C 86.781 127.744,86.722 127.684,86.635 127.698 C 85.785 127.832,85.115 127.636,85.115 127.254 C 85.115 126.917,84.976 126.834,84.406 126.834 C 83.873 126.834,83.669 126.730,83.587 126.415 C 83.503 126.094,83.301 125.996,82.724 125.996 C 82.194 125.996,81.971 125.903,81.971 125.681 C 81.971 125.463,81.751 125.367,81.251 125.367 C 80.716 125.367,80.497 125.260,80.398 124.948 C 80.300 124.638,80.081 124.528,79.560 124.528 C 79.038 124.528,78.820 124.419,78.721 124.109 C 78.622 123.797,78.404 123.690,77.868 123.690 C 77.393 123.690,77.149 123.591,77.149 123.398 C 77.149 123.060,76.702 122.851,75.979 122.851 C 75.675 122.851,75.472 122.729,75.472 122.546 C 75.472 122.361,75.171 122.185,74.709 122.098 C 74.290 122.020,73.771 121.779,73.556 121.565 C 73.341 121.350,72.970 121.174,72.731 121.174 C 72.493 121.174,72.156 121.032,71.983 120.860 C 71.810 120.687,71.393 120.545,71.056 120.545 C 70.671 120.545,70.347 120.390,70.182 120.126 C 69.996 119.827,69.693 119.706,69.132 119.706 C 68.484 119.706,68.344 119.632,68.344 119.287 C 68.344 118.937,68.204 118.868,67.496 118.868 C 66.805 118.868,66.660 118.800,66.710 118.501 C 66.758 118.216,66.600 118.120,66.007 118.070 C 65.458 118.025,65.212 117.892,65.135 117.599 C 65.055 117.290,64.845 117.191,64.275 117.191 C 63.745 117.191,63.522 117.097,63.522 116.876 C 63.522 116.659,63.303 116.562,62.813 116.562 C 62.280 116.562,62.076 116.458,61.994 116.143 C 61.911 115.825,61.708 115.723,61.155 115.723 C 60.603 115.723,60.400 115.622,60.317 115.304 C 60.233 114.986,60.031 114.885,59.478 114.885 C 58.925 114.885,58.723 114.783,58.639 114.465 C 58.561 114.164,58.354 114.046,57.904 114.046 C 57.551 114.046,57.227 113.914,57.161 113.743 C 57.097 113.577,56.702 113.376,56.284 113.297 C 55.865 113.219,55.473 113.028,55.414 112.872 C 55.354 112.717,54.988 112.530,54.599 112.458 C 54.211 112.385,53.784 112.193,53.651 112.033 C 53.517 111.872,53.183 111.740,52.909 111.740 C 52.635 111.740,52.222 111.551,51.992 111.321 C 51.761 111.090,51.357 110.901,51.094 110.901 C 50.832 110.901,50.481 110.713,50.314 110.482 C 50.137 110.236,49.772 110.063,49.431 110.063 C 49.078 110.063,48.748 109.899,48.589 109.644 C 48.432 109.392,48.100 109.224,47.760 109.224 C 47.439 109.224,47.071 109.050,46.912 108.822 C 46.749 108.590,46.321 108.390,45.904 108.350 C 45.462 108.308,45.199 108.178,45.231 108.019 C 45.266 107.844,45.003 107.757,44.444 107.757 C 43.746 107.757,43.606 107.687,43.606 107.338 C 43.606 106.990,43.466 106.918,42.792 106.918 C 42.154 106.918,41.954 106.827,41.868 106.499 C 41.781 106.165,41.862 106.080,42.263 106.080 C 42.628 106.080,42.767 105.964,42.767 105.660 C 42.767 105.315,42.907 105.241,43.555 105.241 C 44.117 105.241,44.419 105.120,44.605 104.822 C 44.749 104.591,45.059 104.403,45.294 104.403 C 45.528 104.403,45.922 104.214,46.170 103.983 C 46.417 103.753,46.838 103.564,47.105 103.564 C 47.371 103.564,47.778 103.375,48.008 103.145 C 48.239 102.914,48.652 102.725,48.926 102.725 C 49.200 102.725,49.534 102.594,49.667 102.433 C 49.801 102.272,50.228 102.081,50.616 102.008 C 51.004 101.935,51.376 101.736,51.441 101.567 C 51.506 101.397,51.799 101.258,52.092 101.258 C 52.385 101.258,52.786 101.069,52.984 100.839 C 53.188 100.600,53.602 100.419,53.945 100.419 C 54.370 100.419,54.579 100.296,54.656 100.000 C 54.739 99.682,54.942 99.581,55.495 99.581 C 56.047 99.581,56.250 99.479,56.333 99.161 C 56.415 98.850,56.619 98.742,57.130 98.742 C 57.547 98.742,57.864 98.619,57.937 98.428 C 58.009 98.241,58.324 98.113,58.713 98.113 C 59.192 98.113,59.398 98.000,59.478 97.694 C 59.561 97.376,59.764 97.275,60.317 97.275 C 60.862 97.275,61.072 97.172,61.152 96.867 C 61.229 96.574,61.474 96.441,62.024 96.395 C 62.617 96.346,62.774 96.249,62.727 95.964 C 62.676 95.665,62.822 95.597,63.513 95.597 C 64.221 95.597,64.361 95.528,64.361 95.178 C 64.361 94.833,64.500 94.759,65.149 94.759 C 65.710 94.759,66.012 94.638,66.199 94.340 C 66.343 94.109,66.678 93.920,66.943 93.920 C 67.208 93.920,67.608 93.782,67.832 93.613 C 68.056 93.443,68.451 93.302,68.711 93.298 C 68.970 93.294,69.371 93.103,69.602 92.872 C 69.832 92.642,70.210 92.453,70.440 92.453 C 70.671 92.453,71.048 92.264,71.279 92.034 C 71.509 91.803,71.933 91.614,72.220 91.614 C 72.516 91.614,72.857 91.432,73.005 91.195 C 73.182 90.911,73.494 90.776,73.969 90.776 C 74.496 90.776,74.700 90.671,74.782 90.356 C 74.864 90.041,75.068 89.937,75.601 89.937 C 76.092 89.937,76.310 89.840,76.310 89.623 C 76.310 89.430,76.506 89.308,76.817 89.308 C 77.541 89.308,77.987 89.100,77.987 88.762 C 77.987 88.569,78.232 88.470,78.707 88.470 C 79.243 88.470,79.461 88.362,79.560 88.050 C 79.659 87.738,79.877 87.631,80.412 87.631 C 80.992 87.631,81.132 87.550,81.132 87.212 C 81.132 86.864,81.272 86.792,81.947 86.792 C 82.595 86.792,82.757 86.717,82.734 86.426 C 82.711 86.146,82.909 86.034,83.565 85.954 C 84.234 85.872,84.412 85.768,84.369 85.482 C 84.325 85.189,84.470 85.115,85.094 85.115 C 85.523 85.115,86.057 84.977,86.281 84.808 C 86.505 84.638,86.885 84.497,87.127 84.493 C 87.368 84.489,87.728 84.307,87.927 84.088 C 88.125 83.869,88.602 83.630,88.987 83.558 C 89.372 83.486,89.740 83.288,89.805 83.118 C 89.873 82.941,90.192 82.809,90.552 82.809 C 90.966 82.809,91.257 82.666,91.405 82.390 C 91.563 82.095,91.844 81.971,92.355 81.971 C 92.942 81.971,93.082 81.890,93.082 81.551 C 93.082 81.211,93.222 81.132,93.822 81.132 C 94.287 81.132,94.607 81.015,94.683 80.818 C 94.749 80.645,95.022 80.503,95.288 80.503 C 95.991 80.503,96.436 80.291,96.436 79.957 C 96.436 79.763,96.682 79.665,97.170 79.665 C 97.764 79.665,97.904 79.585,97.904 79.245 C 97.904 78.896,98.043 78.826,98.742 78.826 C 99.441 78.826,99.581 78.756,99.581 78.407 C 99.581 78.067,99.720 77.987,100.314 77.987 C 100.908 77.987,101.048 77.908,101.048 77.568 C 101.048 77.219,101.188 77.149,101.887 77.149 C 102.492 77.149,102.725 77.061,102.725 76.834 C 102.725 76.607,102.958 76.520,103.564 76.520 C 104.165 76.520,104.403 76.432,104.403 76.209 C 104.403 76.039,104.662 75.843,104.979 75.776 C 105.882 75.582,106.499 75.291,106.499 75.057 C 106.499 74.939,106.722 74.843,106.995 74.843 C 107.267 74.843,107.730 74.654,108.024 74.423 C 108.317 74.193,108.810 74.004,109.120 74.004 C 109.507 74.004,109.717 73.873,109.793 73.585 C 109.876 73.267,110.078 73.166,110.631 73.166 C 111.184 73.166,111.387 73.064,111.470 72.746 C 111.552 72.430,111.756 72.327,112.295 72.327 C 112.738 72.327,113.057 72.207,113.132 72.013 C 113.198 71.840,113.479 71.698,113.756 71.698 C 114.033 71.698,114.421 71.509,114.619 71.279 C 114.842 71.018,115.237 70.860,115.665 70.860 C 116.212 70.860,116.352 70.774,116.352 70.440 C 116.352 70.099,116.492 70.021,117.106 70.021 C 117.683 70.021,117.885 69.923,117.969 69.602 C 118.051 69.287,118.255 69.182,118.788 69.182 C 119.357 69.182,119.497 69.100,119.497 68.763 C 119.497 68.414,119.637 68.344,120.335 68.344 C 120.941 68.344,121.174 68.256,121.174 68.029 C 121.174 67.810,121.394 67.715,121.900 67.715 C 122.412 67.715,122.693 67.591,122.851 67.296 C 122.994 67.029,123.290 66.876,123.665 66.876 C 123.989 66.876,124.424 66.688,124.633 66.457 C 124.842 66.226,125.234 66.038,125.504 66.038 C 125.775 66.038,126.184 65.849,126.415 65.618 C 126.646 65.388,127.015 65.199,127.237 65.199 C 127.861 65.199,128.302 64.973,128.302 64.653 C 128.302 64.457,128.551 64.361,129.055 64.361 C 129.632 64.361,129.834 64.262,129.918 63.941 C 130.001 63.626,130.204 63.522,130.737 63.522 C 131.228 63.522,131.447 63.425,131.447 63.208 C 131.447 63.015,131.643 62.893,131.954 62.893 C 132.677 62.893,133.124 62.685,133.124 62.347 C 133.124 62.151,133.373 62.055,133.877 62.055 C 134.454 62.055,134.656 61.956,134.740 61.635 C 134.823 61.317,135.026 61.216,135.579 61.216 C 136.131 61.216,136.334 61.115,136.417 60.797 C 136.494 60.503,136.703 60.377,137.117 60.377 C 137.523 60.377,137.749 60.247,137.841 59.958 C 137.944 59.632,138.158 59.539,138.798 59.539 C 139.346 59.539,139.605 59.451,139.570 59.277 C 139.537 59.113,139.812 58.990,140.303 58.950 C 140.820 58.907,141.163 58.746,141.307 58.478 C 141.443 58.224,141.745 58.071,142.113 58.071 C 142.437 58.071,142.873 57.883,143.082 57.652 C 143.290 57.421,143.682 57.233,143.953 57.233 C 144.223 57.233,144.633 57.044,144.864 56.813 C 145.094 56.583,145.518 56.394,145.805 56.394 C 146.101 56.394,146.442 56.212,146.590 55.975 C 146.763 55.698,147.078 55.556,147.521 55.556 C 148.006 55.556,148.226 55.440,148.323 55.136 C 148.422 54.824,148.640 54.717,149.176 54.717 C 149.675 54.717,149.895 54.621,149.895 54.403 C 149.895 54.210,150.091 54.088,150.402 54.088 C 151.126 54.088,151.572 53.880,151.572 53.542 C 151.572 53.346,151.822 53.249,152.326 53.249 C 152.903 53.249,153.105 53.151,153.189 52.830 C 153.271 52.515,153.475 52.411,154.008 52.411 C 154.577 52.411,154.717 52.328,154.717 51.992 C 154.717 51.642,154.857 51.572,155.556 51.572 C 156.017 51.572,156.383 51.502,156.369 51.415 C 156.284 50.874,156.461 50.734,157.233 50.734 C 157.838 50.734,158.071 50.646,158.071 50.419 C 158.071 50.204,158.287 50.105,158.755 50.105 C 159.211 50.105,159.525 49.966,159.700 49.686 C 159.862 49.426,160.189 49.266,160.556 49.266 C 160.885 49.266,161.321 49.079,161.530 48.847 C 161.739 48.616,162.131 48.428,162.401 48.428 C 162.672 48.428,163.082 48.239,163.312 48.008 C 163.543 47.778,163.967 47.589,164.254 47.589 C 164.549 47.589,164.890 47.407,165.038 47.170 C 165.213 46.890,165.527 46.751,165.983 46.751 C 166.527 46.751,166.667 46.665,166.667 46.331 C 166.667 45.982,166.806 45.912,167.505 45.912 C 168.111 45.912,168.344 45.825,168.344 45.597 C 168.344 45.405,168.540 45.283,168.851 45.283 C 169.574 45.283,170.021 45.074,170.021 44.736 C 170.021 44.544,170.265 44.444,170.741 44.444 C 171.276 44.444,171.494 44.337,171.593 44.025 C 171.692 43.713,171.910 43.606,172.446 43.606 C 173.026 43.606,173.166 43.524,173.166 43.187 C 173.166 42.839,173.305 42.767,173.981 42.767 C 174.629 42.767,174.790 42.692,174.767 42.400 C 174.745 42.121,174.926 42.018,175.524 41.968 C 176.038 41.926,176.310 41.799,176.310 41.602 C 176.310 41.392,176.552 41.300,177.098 41.300 C 177.660 41.300,177.962 41.179,178.148 40.881 C 178.310 40.621,178.637 40.461,179.005 40.461 C 179.333 40.461,179.769 40.273,179.979 40.042 C 180.188 39.811,180.520 39.623,180.717 39.623 C 180.914 39.623,181.315 39.434,181.609 39.203 C 181.902 38.973,182.383 38.784,182.678 38.784 C 182.999 38.784,183.304 38.616,183.438 38.365 C 183.587 38.086,183.877 37.945,184.304 37.945 C 184.769 37.945,184.975 37.830,185.055 37.526 C 185.140 37.198,185.341 37.107,185.978 37.107 C 186.562 37.107,186.792 37.018,186.792 36.792 C 186.792 36.583,187.002 36.478,187.420 36.478 C 187.820 36.478,188.142 36.326,188.309 36.059 C 188.483 35.779,188.798 35.639,189.254 35.639 C 189.797 35.639,189.937 35.554,189.937 35.220 C 189.937 34.871,190.077 34.801,190.776 34.801 C 191.474 34.801,191.614 34.731,191.614 34.382 C 191.614 34.081,191.763 33.955,192.138 33.936 C 193.100 33.888,193.187 33.849,193.157 33.486 C 193.135 33.208,193.295 33.124,193.845 33.124 C 194.289 33.124,194.608 33.004,194.683 32.809 C 194.757 32.616,195.075 32.495,195.508 32.495 C 195.997 32.495,196.280 32.367,196.436 32.075 C 196.583 31.801,196.875 31.656,197.282 31.656 C 197.624 31.656,198.079 31.480,198.294 31.266 C 198.509 31.051,199.024 30.811,199.438 30.734 C 200.014 30.626,200.160 30.514,200.062 30.257 C 199.974 30.028,200.027 29.954,200.229 30.025 C 200.391 30.081,200.496 30.283,200.463 30.472 " stroke="none" fill="#ffffff" fill-rule="evenodd"></path></g></svg>