<svg id="svg" version="1.1" width="400" height="209.6" viewBox="0 0 400 209.6" xmlns="http://www.w3.org/2000/svg" xmlns:xlink="http://www.w3.org/1999/xlink" ><g id="svgg"><path id="path0" d="M318.658 24.109 C 318.782 24.340,318.988 24.528,319.117 24.528 C 319.247 24.528,319.181 24.340,318.973 24.109 C 318.764 23.878,318.557 23.690,318.514 23.690 C 318.470 23.690,318.535 23.878,318.658 24.109 M191.090 29.367 C 184.172 29.465,177.096 29.578,175.367 29.618 C 173.637 29.659,179.392 29.638,188.155 29.573 C 208.889 29.419,259.842 29.421,267.505 29.576 C 271.219 29.651,272.687 29.631,271.384 29.525 C 268.371 29.278,206.008 29.156,191.090 29.367 M141.155 29.926 C 142.632 29.962,144.990 29.962,146.396 29.926 C 147.802 29.890,146.593 29.860,143.711 29.860 C 140.828 29.860,139.678 29.890,141.155 29.926 M278.564 29.917 C 278.823 29.967,279.248 29.967,279.507 29.917 C 279.767 29.867,279.555 29.826,279.036 29.826 C 278.517 29.826,278.305 29.867,278.564 29.917 M367.205 97.065 C 367.295 97.353,367.435 97.919,367.517 98.323 L 367.667 99.057 367.684 98.218 C 367.694 97.749,367.556 97.195,367.372 96.960 C 367.052 96.553,367.047 96.557,367.205 97.065 M32.967 110.797 C 32.969 111.258,33.012 111.422,33.062 111.161 C 33.112 110.900,33.111 110.523,33.058 110.323 C 33.006 110.122,32.965 110.335,32.967 110.797 M367.362 114.413 C 367.290 114.615,367.193 114.850,367.148 114.935 C 367.102 115.020,367.211 115.033,367.390 114.965 C 367.568 114.896,367.715 114.661,367.715 114.443 C 367.715 113.945,367.533 113.930,367.362 114.413 M31.866 142.846 C 31.866 142.890,32.007 143.043,32.180 143.187 C 32.438 143.400,32.495 143.386,32.495 143.107 C 32.495 142.920,32.353 142.767,32.180 142.767 C 32.007 142.767,31.866 142.803,31.866 142.846 M279.403 180.651 C 279.662 180.701,280.086 180.701,280.346 180.651 C 280.605 180.601,280.393 180.560,279.874 180.560 C 279.355 180.560,279.143 180.601,279.403 180.651 M117.296 180.861 C 117.872 180.908,118.433 181.035,118.543 181.144 C 118.653 181.253,119.502 181.339,120.430 181.335 C 123.031 181.326,121.881 180.985,118.868 180.873 C 117.427 180.820,116.719 180.814,117.296 180.861 M271.872 180.905 C 269.706 181.070,269.550 181.342,271.621 181.342 C 272.540 181.342,273.381 181.253,273.491 181.144 C 273.600 181.035,274.209 180.911,274.843 180.868 L 275.996 180.790 274.738 180.786 C 274.046 180.784,272.756 180.837,271.872 180.905 M315.228 187.107 C 315.101 187.438,315.439 187.517,316.021 187.294 C 316.522 187.102,316.418 186.792,315.851 186.792 C 315.575 186.792,315.295 186.934,315.228 187.107 M206.394 190.080 C 206.625 190.143,206.891 190.302,206.987 190.433 C 207.101 190.590,207.131 190.564,207.075 190.356 C 207.028 190.183,206.762 190.025,206.483 190.003 C 206.082 189.973,206.064 189.989,206.394 190.080 M286.914 190.143 C 287.027 190.256,287.447 190.406,287.847 190.476 L 288.574 190.604 287.974 190.270 C 287.301 189.897,286.582 189.810,286.914 190.143 M292.034 190.288 L 291.509 190.597 292.138 190.460 C 292.484 190.385,293.239 190.249,293.816 190.160 L 294.864 189.996 293.711 189.987 C 293.055 189.982,292.332 190.112,292.034 190.288 " stroke="none" fill="#000000" fill-rule="evenodd"></path><path id="path1" d="M178.721 29.358 C 175.031 29.425,179.088 29.439,187.736 29.388 C 196.384 29.338,203.498 29.261,203.546 29.218 C 203.664 29.113,187.055 29.207,178.721 29.358 M262.072 29.216 C 262.120 29.258,264.801 29.337,268.029 29.392 C 271.258 29.447,272.909 29.425,271.698 29.342 C 269.382 29.184,261.922 29.086,262.072 29.216 M151.427 29.716 C 152.904 29.753,155.263 29.752,156.668 29.716 C 158.074 29.680,156.866 29.651,153.983 29.651 C 151.101 29.651,149.950 29.680,151.427 29.716 M276.681 29.712 C 277.058 29.758,277.624 29.757,277.939 29.710 C 278.254 29.662,277.945 29.624,277.254 29.625 C 276.562 29.626,276.304 29.665,276.681 29.712 M101.939 29.926 C 103.063 29.963,104.903 29.963,106.027 29.926 C 107.151 29.888,106.232 29.857,103.983 29.857 C 101.735 29.857,100.815 29.888,101.939 29.926 M32.571 107.652 C 32.572 108.805,32.607 109.250,32.650 108.641 C 32.692 108.032,32.692 107.088,32.649 106.544 C 32.606 106.001,32.571 106.499,32.571 107.652 M32.757 110.797 C 32.760 111.258,32.803 111.422,32.853 111.161 C 32.903 110.900,32.901 110.523,32.848 110.323 C 32.796 110.122,32.755 110.335,32.757 110.797 M113.996 180.861 C 114.257 180.911,114.634 180.909,114.835 180.857 C 115.035 180.804,114.822 180.763,114.361 180.766 C 113.899 180.768,113.735 180.811,113.996 180.861 M116.038 181.132 C 116.268 181.231,116.976 181.312,117.610 181.312 C 118.439 181.312,118.645 181.262,118.344 181.132 C 118.113 181.033,117.406 180.952,116.771 180.952 C 115.943 180.952,115.736 181.003,116.038 181.132 M273.690 181.132 C 273.388 181.262,273.595 181.312,274.423 181.312 C 275.058 181.312,275.765 181.231,275.996 181.132 C 276.297 181.003,276.091 180.952,275.262 180.952 C 274.628 180.952,273.920 181.033,273.690 181.132 M287.913 190.196 C 288.214 190.388,291.589 190.378,292.078 190.184 C 292.276 190.106,291.365 190.042,290.054 190.042 C 288.743 190.042,287.780 190.111,287.913 190.196 " stroke="none" fill="#555555" fill-rule="evenodd"></path><path id="path2" d="M165.304 29.350 L 158.805 29.464 164.361 29.483 C 167.416 29.493,173.407 29.438,177.673 29.361 L 185.430 29.221 178.616 29.228 C 174.869 29.233,168.878 29.287,165.304 29.350 M270.038 29.217 C 270.086 29.259,271.541 29.341,273.270 29.399 C 275.172 29.463,275.876 29.443,275.052 29.347 C 273.628 29.182,269.887 29.085,270.038 29.217 M131.499 29.716 C 132.738 29.753,134.767 29.753,136.006 29.716 C 137.246 29.679,136.232 29.649,133.753 29.649 C 131.274 29.649,130.259 29.679,131.499 29.716 M32.548 110.587 C 32.550 111.048,32.593 111.212,32.643 110.951 C 32.693 110.691,32.691 110.313,32.639 110.113 C 32.586 109.912,32.545 110.126,32.548 110.587 M114.206 181.071 C 114.467 181.121,114.844 181.119,115.044 181.066 C 115.245 181.014,115.031 180.973,114.570 180.975 C 114.109 180.978,113.945 181.021,114.206 181.071 M277.044 181.132 L 275.786 181.271 276.939 181.286 C 277.573 181.293,278.328 181.224,278.616 181.132 C 279.252 180.928,278.885 180.928,277.044 181.132 M289.261 190.091 C 289.754 190.135,290.509 190.135,290.938 190.089 C 291.368 190.044,290.964 190.008,290.042 190.009 C 289.119 190.010,288.768 190.047,289.261 190.091 " stroke="none" fill="#999999" fill-rule="evenodd"></path><path id="path3" d="M111.155 29.297 C 107.096 29.385,107.423 29.769,111.555 29.769 C 113.370 29.769,114.650 29.689,114.583 29.580 C 114.514 29.468,119.833 29.427,127.621 29.479 C 134.856 29.528,147.757 29.487,156.289 29.389 C 171.099 29.218,170.495 29.211,142.977 29.221 C 127.123 29.228,112.803 29.262,111.155 29.297 M276.639 29.360 C 278.146 29.446,280.198 29.502,281.199 29.485 C 282.200 29.469,283.048 29.543,283.084 29.650 C 283.120 29.757,283.314 29.781,283.516 29.704 C 284.603 29.287,283.314 29.142,278.761 29.172 C 274.134 29.202,274.032 29.211,276.639 29.360 M96.151 29.568 C 96.272 29.689,98.596 29.697,102.209 29.590 L 108.071 29.415 102.013 29.393 C 98.248 29.380,96.029 29.446,96.151 29.568 M284.557 29.602 C 284.932 29.737,285.225 29.743,285.351 29.618 C 285.476 29.492,285.257 29.413,284.756 29.403 C 283.972 29.388,283.969 29.390,284.557 29.602 M342.892 36.865 C 342.820 36.982,342.863 37.141,342.987 37.218 C 343.310 37.417,343.518 37.145,343.249 36.876 C 343.098 36.725,342.981 36.721,342.892 36.865 M373.480 80.294 C 373.689 80.524,373.895 80.713,373.939 80.713 C 373.983 80.713,373.918 80.524,373.795 80.294 C 373.671 80.063,373.465 79.874,373.335 79.874 C 373.206 79.874,373.271 80.063,373.480 80.294 M367.423 95.511 C 367.352 95.694,367.387 96.000,367.499 96.192 C 367.660 96.470,367.703 96.402,367.709 95.860 C 367.715 95.114,367.620 94.997,367.423 95.511 M32.622 101.589 C 32.478 101.966,32.446 103.682,32.586 103.542 C 32.698 103.431,32.921 101.258,32.821 101.258 C 32.781 101.258,32.692 101.407,32.622 101.589 M32.495 113.080 C 32.495 113.394,32.581 113.598,32.686 113.534 C 32.896 113.403,32.869 112.883,32.641 112.655 C 32.560 112.574,32.495 112.766,32.495 113.080 M367.450 115.723 C 367.372 116.012,367.321 116.247,367.337 116.247 C 367.353 116.247,367.253 116.460,367.114 116.719 C 366.975 116.979,366.936 117.191,367.027 117.191 C 367.281 117.191,367.757 115.988,367.670 115.570 C 367.611 115.283,367.561 115.318,367.450 115.723 M33.438 119.497 C 33.647 119.727,33.841 119.916,33.870 119.916 C 33.899 119.916,33.874 119.727,33.813 119.497 C 33.753 119.266,33.559 119.078,33.381 119.078 C 33.110 119.078,33.119 119.144,33.438 119.497 M366.441 121.436 C 366.261 122.025,366.309 122.223,366.579 121.999 C 366.924 121.712,366.971 121.384,366.667 121.384 C 366.551 121.384,366.450 121.407,366.441 121.436 M363.747 151.030 C 363.415 151.430,363.514 151.627,363.921 151.376 C 364.075 151.280,364.164 151.086,364.116 150.945 C 364.056 150.762,363.949 150.787,363.747 151.030 M93.920 180.044 C 93.920 180.157,94.070 180.306,94.252 180.376 C 94.456 180.454,94.552 180.408,94.501 180.254 C 94.397 179.941,93.920 179.768,93.920 180.044 M306.421 180.194 C 306.321 180.454,306.375 180.472,306.713 180.291 C 307.199 180.031,307.245 179.874,306.836 179.874 C 306.675 179.874,306.489 180.018,306.421 180.194 M109.789 180.847 C 109.606 181.030,109.821 181.342,110.128 181.339 C 110.278 181.337,110.252 181.254,110.063 181.132 C 109.890 181.020,109.820 180.927,109.909 180.926 C 109.997 180.924,110.252 181.037,110.475 181.177 C 110.699 181.316,110.955 181.358,111.043 181.270 C 111.131 181.182,111.065 181.022,110.895 180.914 C 110.537 180.688,109.982 180.654,109.789 180.847 M282.840 180.899 C 282.685 180.998,281.977 181.042,281.268 180.998 C 280.559 180.954,279.555 181.003,279.036 181.107 C 278.284 181.257,278.689 181.300,281.027 181.316 C 282.796 181.327,284.087 181.247,284.277 181.112 C 284.523 180.938,284.468 180.909,284.021 180.981 C 283.707 181.031,283.501 180.991,283.562 180.892 C 283.705 180.661,283.209 180.665,282.840 180.899 M284.801 180.922 C 284.872 181.038,285.072 181.132,285.245 181.132 C 285.418 181.132,285.501 181.038,285.430 180.922 C 285.359 180.807,285.159 180.713,284.986 180.713 C 284.813 180.713,284.730 180.807,284.801 180.922 M111.321 181.110 C 111.321 181.211,112.236 181.308,113.354 181.325 C 114.473 181.342,115.344 181.312,115.291 181.259 C 115.103 181.071,111.321 180.928,111.321 181.110 M91.913 188.789 C 92.344 189.115,92.585 189.063,92.357 188.693 C 92.281 188.570,92.059 188.473,91.864 188.476 C 91.553 188.482,91.559 188.520,91.913 188.789 M302.489 189.675 C 302.234 190.000,302.240 190.012,302.535 189.782 C 302.719 189.639,302.921 189.574,302.986 189.638 C 303.050 189.703,303.165 189.655,303.241 189.532 C 303.474 189.155,302.796 189.284,302.489 189.675 M114.046 190.094 C 114.046 190.237,124.400 190.229,128.721 190.084 C 129.701 190.050,126.800 190.004,122.275 189.980 C 117.749 189.957,114.046 190.008,114.046 190.094 M214.533 190.094 C 218.548 190.126,225.058 190.126,228.999 190.094 C 232.939 190.062,229.654 190.036,221.698 190.036 C 213.742 190.036,210.518 190.062,214.533 190.094 " stroke="none" fill="#c6c6c6" fill-rule="evenodd"></path><path id="path4" d="M95.743 20.830 C 95.638 21.103,95.311 21.174,94.154 21.174 C 92.600 21.174,91.965 21.313,92.150 21.613 C 92.213 21.715,92.119 21.742,91.940 21.673 C 91.761 21.605,91.614 21.653,91.614 21.781 C 91.614 21.936,90.848 22.013,89.284 22.013 C 87.070 22.013,86.959 22.033,87.061 22.425 C 87.120 22.651,87.108 22.829,87.033 22.819 C 86.068 22.694,85.325 22.890,85.325 23.270 C 85.325 23.703,85.264 23.713,82.552 23.741 C 82.238 23.744,82.029 23.824,82.087 23.919 C 82.146 24.013,82.356 24.035,82.554 23.967 C 82.840 23.869,82.829 23.909,82.502 24.164 C 82.130 24.453,82.061 24.450,81.803 24.139 C 81.540 23.822,81.526 23.823,81.632 24.159 C 81.694 24.359,81.679 24.513,81.596 24.501 C 80.761 24.377,79.665 24.571,79.665 24.843 C 79.665 25.070,79.432 25.157,78.826 25.157 C 78.353 25.157,77.987 25.258,77.987 25.389 C 77.987 25.517,77.851 25.569,77.684 25.505 C 77.481 25.427,77.419 25.489,77.496 25.692 C 77.584 25.920,77.437 25.997,76.909 25.999 C 76.172 26.002,75.596 26.249,75.716 26.510 C 75.755 26.595,75.418 26.790,74.969 26.945 C 74.519 27.099,74.090 27.324,74.016 27.444 C 73.942 27.564,73.383 27.680,72.774 27.701 C 71.812 27.735,71.680 27.791,71.768 28.126 C 71.845 28.421,71.751 28.512,71.364 28.512 C 70.999 28.512,70.860 28.628,70.860 28.931 C 70.860 29.282,70.720 29.350,69.999 29.350 C 69.319 29.350,69.163 29.417,69.258 29.665 C 69.325 29.838,69.264 29.988,69.123 30.000 C 68.983 30.011,68.633 30.035,68.345 30.052 C 68.034 30.071,67.821 30.212,67.821 30.398 C 67.820 30.612,67.560 30.734,67.010 30.779 C 66.435 30.826,66.172 30.958,66.100 31.232 C 66.044 31.444,65.819 31.664,65.599 31.722 C 65.379 31.780,65.199 31.977,65.199 32.161 C 65.199 32.344,65.095 32.495,64.967 32.495 C 64.837 32.495,64.791 32.333,64.863 32.128 C 64.984 31.778,64.977 31.778,64.705 32.128 C 64.548 32.330,64.264 32.495,64.075 32.495 C 63.871 32.495,63.732 32.665,63.732 32.914 C 63.732 33.261,63.592 33.333,62.918 33.333 C 62.267 33.333,62.080 33.422,61.988 33.774 C 61.924 34.019,61.773 34.152,61.647 34.075 C 61.523 33.998,61.222 33.999,60.977 34.076 C 60.667 34.175,60.610 34.266,60.789 34.377 C 60.961 34.483,60.870 34.580,60.516 34.669 C 60.225 34.742,59.926 34.990,59.853 35.221 C 59.780 35.451,59.538 35.639,59.315 35.639 C 59.050 35.639,58.910 35.784,58.910 36.059 C 58.910 36.400,58.770 36.478,58.156 36.478 C 57.579 36.478,57.377 36.576,57.293 36.897 C 57.233 37.129,57.007 37.317,56.789 37.317 C 56.534 37.317,56.394 37.465,56.394 37.736 C 56.394 38.015,56.254 38.155,55.975 38.155 C 55.742 38.155,55.556 38.295,55.556 38.470 C 55.556 38.643,55.414 38.784,55.241 38.784 C 55.068 38.784,54.747 38.964,54.526 39.184 C 54.306 39.404,53.952 39.618,53.740 39.658 C 53.528 39.699,53.325 39.938,53.289 40.190 C 53.245 40.498,53.121 40.608,52.909 40.527 C 52.706 40.449,52.554 40.564,52.479 40.853 C 52.415 41.099,52.223 41.300,52.052 41.300 C 51.882 41.300,51.693 41.488,51.633 41.719 C 51.573 41.950,51.393 42.138,51.233 42.138 C 51.074 42.138,50.943 42.280,50.943 42.453 C 50.943 42.628,50.757 42.767,50.524 42.767 C 50.245 42.767,50.105 42.907,50.105 43.187 C 50.105 43.466,49.965 43.606,49.686 43.606 C 49.406 43.606,49.266 43.746,49.266 44.025 C 49.266 44.305,49.126 44.444,48.847 44.444 C 48.567 44.444,48.428 44.584,48.428 44.864 C 48.428 45.143,48.288 45.283,48.008 45.283 C 47.729 45.283,47.589 45.423,47.589 45.702 C 47.589 45.982,47.449 46.122,47.170 46.122 C 46.890 46.122,46.751 46.261,46.751 46.541 C 46.751 46.774,46.611 46.960,46.436 46.960 C 46.263 46.960,46.122 47.102,46.122 47.275 C 46.122 47.448,45.971 47.589,45.788 47.589 C 45.604 47.589,45.406 47.769,45.349 47.989 C 45.291 48.209,45.064 48.436,44.844 48.493 C 44.624 48.551,44.444 48.748,44.444 48.932 C 44.444 49.116,44.301 49.266,44.125 49.266 C 43.949 49.266,43.715 49.502,43.606 49.790 C 43.496 50.079,43.310 50.314,43.192 50.314 C 43.074 50.314,42.977 50.420,42.977 50.550 C 42.977 50.712,43.074 50.704,43.291 50.524 C 43.549 50.310,43.606 50.325,43.606 50.603 C 43.606 50.790,43.535 50.932,43.449 50.919 C 43.042 50.854,42.754 50.962,42.863 51.138 C 42.929 51.245,42.793 51.393,42.561 51.467 C 42.328 51.540,42.138 51.783,42.138 52.006 C 42.138 52.369,41.917 52.508,41.457 52.436 C 41.371 52.422,41.300 52.600,41.300 52.830 C 41.300 53.110,41.160 53.249,40.881 53.249 C 40.650 53.249,40.472 53.320,40.486 53.407 C 40.553 53.831,40.433 54.088,40.169 54.088 C 39.791 54.088,39.570 54.659,39.896 54.792 C 40.082 54.867,40.079 54.898,39.885 54.910 C 39.741 54.919,39.623 55.115,39.623 55.346 C 39.623 55.625,39.483 55.765,39.203 55.765 C 38.928 55.765,38.784 55.905,38.784 56.172 C 38.784 56.396,38.675 56.646,38.542 56.729 C 38.378 56.830,38.357 56.784,38.477 56.584 C 38.629 56.333,38.602 56.332,38.300 56.577 C 38.105 56.735,37.945 57.042,37.945 57.258 C 37.945 57.475,37.828 57.628,37.683 57.600 C 37.527 57.568,37.395 57.821,37.356 58.229 C 37.306 58.740,37.189 58.910,36.884 58.910 C 36.661 58.910,36.489 58.981,36.503 59.067 C 36.570 59.491,36.450 59.748,36.186 59.748 C 35.870 59.748,35.639 60.187,35.639 60.789 C 35.639 60.997,35.444 61.218,35.204 61.281 C 34.941 61.350,34.785 61.546,34.809 61.777 C 34.892 62.565,34.789 62.847,34.382 62.954 C 34.058 63.039,33.959 63.247,33.948 63.869 C 33.936 64.483,33.894 64.575,33.769 64.256 L 33.605 63.836 33.474 64.256 C 33.402 64.486,33.321 64.982,33.294 65.356 C 33.250 65.956,32.914 66.373,32.914 65.828 C 32.914 65.713,32.820 65.618,32.704 65.618 C 32.589 65.618,32.495 65.939,32.495 66.330 C 32.495 66.769,32.374 67.087,32.180 67.162 C 32.007 67.228,31.866 67.467,31.866 67.693 C 31.866 67.919,31.724 68.246,31.551 68.419 C 31.182 68.788,31.133 69.062,31.474 68.851 C 31.618 68.762,31.671 68.818,31.609 68.996 C 31.553 69.156,31.347 69.258,31.151 69.223 C 30.952 69.187,30.810 69.280,30.831 69.433 C 30.945 70.282,30.789 70.818,30.398 70.920 C 30.096 70.999,29.979 71.206,29.979 71.661 C 29.979 72.564,29.763 73.073,29.534 72.711 C 29.425 72.540,29.355 72.899,29.353 73.637 C 29.352 74.300,29.256 74.843,29.140 74.843 C 29.025 74.843,28.954 74.772,28.983 74.686 C 29.012 74.599,28.941 74.481,28.826 74.423 C 28.703 74.362,28.590 74.766,28.554 75.398 C 28.504 76.261,28.409 76.498,28.082 76.583 C 27.703 76.682,27.499 77.922,27.654 79.177 C 27.670 79.312,27.587 79.483,27.469 79.556 C 27.351 79.629,27.251 79.519,27.247 79.310 C 27.230 78.276,26.835 79.739,26.808 80.938 C 26.783 82.045,26.736 82.197,26.516 81.897 C 26.153 81.400,25.996 81.850,25.996 83.386 C 25.996 84.203,25.885 84.685,25.629 84.977 C 25.279 85.377,25.279 85.390,25.640 85.258 C 25.866 85.176,25.966 85.203,25.890 85.327 C 25.819 85.441,25.619 85.535,25.445 85.535 C 25.192 85.535,25.135 85.815,25.159 86.950 C 25.200 88.881,25.199 88.889,24.843 88.889 C 24.581 88.889,24.528 89.299,24.528 91.324 C 24.528 93.656,24.511 93.755,24.109 93.650 C 23.693 93.541,23.690 93.644,23.690 105.241 C 23.690 116.839,23.693 116.941,24.109 116.832 C 24.494 116.732,24.774 119.756,24.545 121.538 C 24.525 121.689,24.645 121.745,24.834 121.672 C 25.178 121.541,25.230 121.900,25.162 123.924 C 25.135 124.715,25.202 124.910,25.528 124.996 C 25.912 125.096,26.068 125.940,26.048 127.804 C 26.045 128.139,26.142 128.224,26.439 128.147 C 26.878 128.032,26.884 128.055,26.837 129.812 C 26.811 130.785,26.886 131.076,27.239 131.378 C 27.487 131.590,27.673 132.002,27.673 132.338 C 27.673 132.662,27.807 132.979,27.971 133.042 C 28.377 133.197,28.540 133.683,28.186 133.683 C 28.029 133.683,27.946 133.611,28.000 133.523 C 28.055 133.434,28.003 133.303,27.886 133.231 C 27.769 133.158,27.673 133.255,27.673 133.445 C 27.673 133.636,27.862 133.841,28.092 133.902 C 28.389 133.979,28.512 134.187,28.512 134.614 C 28.512 134.990,28.669 135.315,28.931 135.478 C 29.264 135.686,29.350 135.967,29.350 136.843 C 29.350 137.663,29.428 137.945,29.652 137.945 C 29.849 137.945,29.976 138.217,30.019 138.732 C 30.068 139.330,30.172 139.511,30.451 139.489 C 30.748 139.465,30.818 139.631,30.818 140.363 C 30.818 141.503,30.981 141.933,31.359 141.788 C 31.624 141.687,31.769 142.056,31.681 142.610 C 31.667 142.697,31.845 142.767,32.075 142.767 C 32.402 142.767,32.502 142.918,32.527 143.449 C 32.544 143.823,32.581 144.224,32.607 144.340 C 32.634 144.455,32.667 144.673,32.680 144.824 C 32.694 144.975,32.800 145.039,32.917 144.966 C 33.035 144.894,33.076 144.747,33.010 144.640 C 32.944 144.532,32.989 144.444,33.111 144.444 C 33.233 144.444,33.333 144.822,33.333 145.283 C 33.333 145.889,33.421 146.122,33.648 146.122 C 33.860 146.122,33.962 146.333,33.962 146.770 C 33.962 147.242,34.076 147.449,34.382 147.528 C 34.678 147.606,34.801 147.814,34.801 148.241 C 34.801 148.616,34.959 148.942,35.220 149.105 C 35.451 149.249,35.641 149.557,35.643 149.788 C 35.647 150.317,35.851 150.622,36.317 150.794 C 36.537 150.875,36.632 151.055,36.557 151.250 C 36.470 151.477,36.564 151.572,36.875 151.572 C 37.306 151.572,37.413 151.833,37.328 152.673 C 37.307 152.875,37.393 153.040,37.518 153.040 C 37.644 153.040,37.836 153.276,37.945 153.564 C 38.055 153.852,38.282 154.088,38.449 154.088 C 38.616 154.088,38.785 154.253,38.824 154.455 C 38.863 154.656,39.081 154.821,39.310 154.821 C 39.662 154.822,39.715 154.942,39.658 155.608 C 39.600 156.286,39.651 156.394,40.026 156.394 C 40.321 156.394,40.461 156.529,40.461 156.813 C 40.461 157.093,40.601 157.233,40.881 157.233 C 41.153 157.233,41.300 157.372,41.300 157.632 C 41.300 157.929,41.408 158.004,41.719 157.922 C 42.056 157.834,42.138 157.916,42.138 158.339 C 42.138 158.628,42.280 158.919,42.453 158.986 C 42.626 159.052,42.767 159.354,42.767 159.657 C 42.767 160.031,42.902 160.242,43.187 160.317 C 43.419 160.377,43.606 160.603,43.606 160.821 C 43.606 161.076,43.754 161.216,44.025 161.216 C 44.305 161.216,44.444 161.356,44.444 161.635 C 44.444 161.915,44.584 162.055,44.864 162.055 C 45.143 162.055,45.283 162.194,45.283 162.474 C 45.283 162.753,45.423 162.893,45.702 162.893 C 45.982 162.893,46.122 163.033,46.122 163.312 C 46.122 163.543,46.253 163.732,46.414 163.732 C 46.574 163.732,46.760 163.874,46.827 164.048 C 46.894 164.222,47.022 164.352,47.112 164.338 C 47.579 164.261,47.799 164.403,47.799 164.780 C 47.799 165.013,47.939 165.199,48.113 165.199 C 48.288 165.199,48.428 165.386,48.428 165.618 C 48.428 165.898,48.567 166.038,48.847 166.038 C 49.078 166.038,49.266 166.138,49.266 166.260 C 49.266 166.382,49.157 166.414,49.024 166.332 C 48.873 166.239,48.839 166.275,48.934 166.428 C 49.017 166.563,49.173 166.619,49.281 166.553 C 49.388 166.487,49.476 166.532,49.476 166.654 C 49.476 166.776,49.617 166.876,49.790 166.876 C 49.985 166.876,50.105 167.073,50.105 167.393 C 50.105 167.705,50.281 168.004,50.549 168.148 C 50.887 168.328,50.957 168.326,50.842 168.140 C 50.741 167.976,50.838 167.986,51.131 168.169 C 51.374 168.321,51.572 168.611,51.572 168.814 C 51.572 169.035,51.730 169.182,51.967 169.182 C 52.186 169.182,52.411 169.370,52.472 169.602 C 52.532 169.832,52.732 170.021,52.915 170.021 C 53.099 170.021,53.249 170.165,53.249 170.341 C 53.249 170.516,53.485 170.750,53.774 170.860 C 54.062 170.969,54.298 171.161,54.298 171.286 C 54.298 171.411,54.394 171.454,54.511 171.382 C 54.628 171.309,54.670 171.162,54.603 171.055 C 54.537 170.947,54.582 170.860,54.705 170.860 C 54.827 170.860,54.927 171.048,54.927 171.279 C 54.927 171.509,54.997 171.687,55.084 171.673 C 55.574 171.596,55.798 171.730,55.682 172.032 C 55.596 172.255,55.694 172.402,55.974 172.476 C 56.205 172.536,56.394 172.716,56.394 172.876 C 56.394 173.035,56.572 173.166,56.789 173.166 C 57.007 173.166,57.233 173.353,57.293 173.585 C 57.377 173.906,57.579 174.004,58.156 174.004 C 58.761 174.004,58.910 174.084,58.910 174.409 C 58.910 174.669,59.078 174.838,59.382 174.881 C 59.712 174.927,59.833 175.066,59.785 175.343 C 59.733 175.647,59.813 175.713,60.134 175.629 C 60.423 175.554,60.583 175.642,60.654 175.917 C 60.717 176.154,61.018 176.365,61.406 176.443 C 61.763 176.514,62.055 176.702,62.055 176.861 C 62.055 177.056,62.318 177.149,62.869 177.149 C 63.506 177.149,63.706 177.240,63.792 177.568 C 63.872 177.873,64.078 177.987,64.551 177.987 C 65.059 177.987,65.199 178.078,65.199 178.407 C 65.199 178.678,65.339 178.826,65.594 178.826 C 65.813 178.826,66.038 179.013,66.098 179.245 C 66.182 179.566,66.384 179.665,66.962 179.665 C 67.575 179.665,67.715 179.742,67.715 180.084 C 67.715 180.434,67.855 180.503,68.563 180.503 C 69.254 180.503,69.399 180.571,69.349 180.870 C 69.301 181.156,69.460 181.251,70.073 181.302 C 70.588 181.345,70.860 181.471,70.860 181.669 C 70.860 181.882,71.109 181.971,71.707 181.971 C 72.398 181.971,72.544 182.038,72.493 182.338 C 72.445 182.629,72.623 182.726,73.359 182.809 C 73.888 182.869,74.327 183.039,74.382 183.205 C 74.446 183.399,74.388 183.441,74.209 183.330 C 74.032 183.221,73.991 183.247,74.089 183.406 C 74.171 183.539,74.567 183.648,74.968 183.648 C 75.370 183.648,75.954 183.835,76.266 184.063 C 76.579 184.291,77.141 184.500,77.515 184.527 C 77.970 184.559,78.178 184.674,78.144 184.874 C 78.090 185.184,78.386 185.275,79.717 185.358 C 80.199 185.388,80.503 185.513,80.503 185.680 C 80.503 185.912,81.872 186.102,82.652 185.979 C 82.738 185.965,82.809 186.143,82.809 186.373 C 82.809 186.755,82.949 186.792,84.382 186.792 C 85.391 186.792,85.954 186.875,85.954 187.025 C 85.954 187.154,85.792 187.200,85.587 187.129 C 85.281 187.022,85.288 187.053,85.627 187.316 C 85.851 187.489,86.355 187.631,86.747 187.631 C 87.198 187.631,87.586 187.782,87.807 188.044 C 88.092 188.383,88.448 188.464,89.780 188.494 C 90.989 188.521,91.405 188.604,91.405 188.815 C 91.405 188.971,91.611 189.099,91.864 189.099 C 92.313 189.099,92.314 189.092,91.916 188.791 C 91.530 188.499,91.529 188.483,91.896 188.476 C 92.110 188.473,92.331 188.657,92.392 188.889 C 92.494 189.280,92.678 189.308,95.104 189.308 C 97.131 189.308,97.732 189.373,97.819 189.599 C 97.904 189.822,98.505 189.898,100.365 189.924 C 101.704 189.942,102.948 190.044,103.129 190.151 C 103.335 190.271,103.361 190.346,103.197 190.350 C 103.053 190.354,102.935 190.442,102.935 190.547 C 102.935 190.655,105.450 190.748,108.801 190.763 C 113.983 190.787,114.653 190.752,114.544 190.469 C 114.477 190.293,114.337 190.201,114.234 190.265 C 114.131 190.329,114.046 190.281,114.046 190.159 C 114.046 190.007,116.704 189.937,122.549 189.937 C 128.255 189.937,131.009 190.007,130.920 190.150 C 130.848 190.267,130.701 190.309,130.593 190.243 C 130.486 190.176,130.398 190.222,130.398 190.344 C 130.398 190.665,130.724 190.617,131.027 190.252 C 131.258 189.974,137.400 189.938,184.040 189.944 C 230.469 189.950,236.744 189.987,236.386 190.258 C 236.162 190.428,236.079 190.566,236.203 190.566 C 236.326 190.566,236.544 190.425,236.688 190.252 C 236.918 189.975,240.832 189.937,269.602 189.937 C 298.371 189.937,302.286 189.900,302.516 189.623 C 302.805 189.274,303.456 189.184,303.247 189.521 C 303.175 189.638,303.034 189.684,302.935 189.623 C 302.836 189.561,302.705 189.591,302.644 189.689 C 302.464 189.981,303.231 189.893,303.459 189.596 C 303.607 189.403,304.351 189.315,305.975 189.298 C 308.461 189.271,309.224 189.166,309.224 188.854 C 309.224 188.744,309.106 188.721,308.962 188.802 C 308.777 188.907,308.764 188.881,308.916 188.714 C 309.044 188.575,309.938 188.467,311.091 188.451 C 312.823 188.428,313.061 188.379,313.153 188.028 C 313.229 187.734,313.446 187.631,313.985 187.631 C 314.538 187.631,314.741 187.530,314.824 187.212 C 314.923 186.832,315.110 186.792,316.796 186.792 C 318.519 186.792,318.658 186.761,318.658 186.373 C 318.658 186.035,318.798 185.954,319.382 185.954 C 319.803 185.954,320.178 185.824,320.279 185.643 C 320.390 185.444,320.821 185.318,321.471 185.293 C 322.263 185.263,322.512 185.169,322.590 184.871 C 322.682 184.519,323.245 184.365,324.057 184.471 C 324.201 184.489,324.319 184.312,324.319 184.076 C 324.319 183.715,324.458 183.645,325.210 183.630 C 326.590 183.603,327.040 183.526,327.291 183.275 C 327.461 183.105,327.403 183.074,327.074 183.160 C 326.813 183.228,326.625 183.179,326.625 183.043 C 326.625 182.914,326.963 182.809,327.378 182.809 C 327.955 182.809,328.157 182.711,328.241 182.390 C 328.324 182.075,328.527 181.971,329.060 181.971 C 329.551 181.971,329.769 181.874,329.769 181.656 C 329.769 181.320,329.952 181.264,330.889 181.315 C 331.325 181.338,331.514 181.234,331.595 180.925 C 331.674 180.621,331.880 180.503,332.329 180.503 C 332.777 180.503,332.984 180.385,333.063 180.084 C 333.164 179.696,333.695 179.539,334.539 179.649 C 334.683 179.668,334.801 179.490,334.801 179.254 C 334.801 178.966,334.938 178.826,335.220 178.826 C 335.500 178.826,335.639 178.686,335.639 178.407 C 335.639 178.050,335.779 177.987,336.581 177.987 C 337.296 177.987,337.586 177.886,337.785 177.568 C 337.929 177.338,338.212 177.149,338.415 177.149 C 338.618 177.149,338.784 177.027,338.784 176.878 C 338.784 176.729,339.091 176.515,339.465 176.404 C 339.840 176.292,340.123 176.084,340.094 175.941 C 340.066 175.798,340.227 175.681,340.454 175.681 C 340.680 175.681,340.967 175.493,341.090 175.262 C 341.214 175.031,341.453 174.843,341.622 174.843 C 341.791 174.843,341.929 174.654,341.929 174.423 C 341.929 174.082,342.068 174.004,342.682 174.004 C 343.259 174.004,343.461 173.906,343.545 173.585 C 343.606 173.353,343.831 173.166,344.050 173.166 C 344.267 173.166,344.444 173.035,344.444 172.876 C 344.444 172.716,344.639 172.535,344.877 172.473 C 345.152 172.401,345.285 172.220,345.244 171.976 C 345.200 171.719,345.298 171.603,345.545 171.622 C 345.771 171.640,345.912 171.505,345.912 171.268 C 345.912 170.977,346.100 170.869,346.698 170.820 C 347.296 170.770,347.477 170.667,347.455 170.388 C 347.436 170.148,347.581 170.015,347.874 170.004 C 348.121 169.995,348.205 169.940,348.061 169.882 C 347.917 169.824,347.799 169.693,347.799 169.591 C 347.799 169.489,347.940 169.459,348.113 169.526 C 348.286 169.592,348.428 169.542,348.428 169.414 C 348.428 169.287,348.563 169.182,348.728 169.182 C 348.893 169.182,349.088 168.994,349.161 168.763 C 349.235 168.532,349.430 168.344,349.595 168.344 C 349.760 168.344,349.895 168.202,349.895 168.029 C 349.895 167.855,350.082 167.715,350.314 167.715 C 350.594 167.715,350.734 167.575,350.734 167.296 C 350.734 167.016,350.874 166.876,351.153 166.876 C 351.433 166.876,351.572 166.737,351.572 166.457 C 351.572 166.177,351.712 166.038,351.992 166.038 C 352.222 166.038,352.400 165.967,352.386 165.881 C 352.313 165.417,352.455 165.199,352.830 165.199 C 353.112 165.199,353.249 165.059,353.249 164.773 C 353.249 164.539,353.391 164.293,353.564 164.227 C 353.737 164.160,353.878 163.985,353.878 163.837 C 353.878 163.690,354.044 163.582,354.245 163.598 C 354.447 163.614,354.588 163.507,354.558 163.360 C 354.529 163.214,354.741 163.004,355.030 162.894 C 355.319 162.784,355.556 162.550,355.556 162.374 C 355.556 162.194,355.739 162.055,355.975 162.055 C 356.305 162.055,356.394 161.915,356.394 161.400 C 356.394 160.842,356.440 160.784,356.709 161.006 C 357.023 161.267,357.051 161.234,357.107 160.535 C 357.118 160.390,357.269 160.148,357.442 159.995 C 357.615 159.842,357.639 159.777,357.495 159.850 C 357.351 159.923,357.233 159.883,357.233 159.761 C 357.233 159.639,357.363 159.539,357.523 159.539 C 357.682 159.539,357.862 159.350,357.923 159.119 C 357.996 158.838,358.144 158.741,358.366 158.827 C 358.607 158.919,358.700 158.831,358.700 158.513 C 358.700 158.203,358.832 158.071,359.144 158.071 C 359.484 158.071,359.562 157.974,359.478 157.652 C 359.391 157.318,359.472 157.233,359.873 157.233 C 360.182 157.233,360.377 157.111,360.377 156.918 C 360.377 156.745,360.573 156.408,360.813 156.168 C 361.052 155.929,361.196 155.596,361.131 155.428 C 361.056 155.232,361.208 155.049,361.558 154.916 C 361.959 154.764,362.073 154.601,361.993 154.294 C 361.933 154.065,361.970 153.878,362.074 153.878 C 362.179 153.878,362.264 153.737,362.264 153.564 C 362.264 153.391,362.406 153.249,362.579 153.249 C 362.753 153.249,362.893 153.063,362.893 152.830 C 362.893 152.597,363.033 152.411,363.208 152.411 C 363.417 152.411,363.522 152.201,363.522 151.784 C 363.522 151.384,363.674 151.062,363.941 150.895 C 364.172 150.751,364.361 150.525,364.361 150.393 C 364.361 150.262,364.549 150.104,364.780 150.044 C 365.101 149.960,365.199 149.758,365.199 149.181 C 365.199 148.567,365.277 148.428,365.618 148.428 C 365.898 148.428,366.038 148.288,366.038 148.008 C 366.038 147.778,366.169 147.589,366.330 147.589 C 366.646 147.589,366.876 147.150,366.876 146.549 C 366.876 146.342,367.018 146.055,367.191 145.912 C 367.364 145.768,367.505 145.379,367.505 145.048 C 367.505 144.590,367.604 144.444,367.912 144.444 C 368.242 144.444,368.332 144.274,368.384 143.553 C 368.436 142.840,368.522 142.675,368.816 142.724 C 369.107 142.773,369.182 142.634,369.182 142.050 C 369.182 141.529,369.305 141.249,369.602 141.090 C 369.856 140.954,370.021 140.651,370.021 140.320 C 370.021 140.019,370.169 139.666,370.349 139.534 C 370.530 139.402,370.733 138.872,370.802 138.357 C 370.878 137.783,371.080 137.312,371.324 137.139 C 371.543 136.983,371.707 136.653,371.687 136.405 C 371.626 135.625,371.689 135.430,372.002 135.430 C 372.225 135.430,372.323 135.109,372.369 134.224 C 372.421 133.226,372.495 133.024,372.799 133.048 C 373.114 133.073,373.166 132.881,373.169 131.685 C 373.171 130.731,373.234 130.392,373.370 130.606 C 373.531 130.861,373.618 130.869,373.836 130.650 C 374.055 130.431,374.047 130.344,373.793 130.183 C 373.584 130.051,373.567 129.984,373.742 129.982 C 373.922 129.980,374.004 129.586,374.004 128.721 C 374.004 127.527,374.100 127.346,374.686 127.438 C 374.821 127.460,374.951 125.524,374.862 124.806 C 374.845 124.671,374.927 124.501,375.044 124.428 C 375.172 124.350,375.209 124.448,375.138 124.675 C 375.031 125.012,375.054 125.009,375.350 124.645 C 375.584 124.358,375.681 123.794,375.681 122.732 C 375.681 121.648,375.770 121.152,375.996 120.964 C 376.169 120.821,376.307 120.550,376.304 120.362 C 376.298 120.076,376.248 120.086,375.989 120.428 C 375.820 120.652,375.681 120.734,375.681 120.611 C 375.681 120.488,375.823 120.269,375.996 120.126 C 376.270 119.898,376.310 117.984,376.310 105.241 C 376.310 92.498,376.270 90.584,375.996 90.356 C 375.823 90.213,375.684 89.989,375.688 89.859 C 375.692 89.729,375.833 89.806,376.002 90.030 C 376.292 90.413,376.310 90.414,376.310 90.053 C 376.310 89.842,376.157 89.557,375.970 89.420 C 375.709 89.229,375.631 88.820,375.637 87.667 C 375.642 86.827,375.555 86.164,375.441 86.164 C 375.329 86.164,375.289 86.080,375.352 85.978 C 375.415 85.875,375.327 85.675,375.155 85.533 C 374.950 85.363,374.843 84.890,374.843 84.159 C 374.843 83.542,374.735 82.977,374.601 82.894 C 374.452 82.802,374.416 82.836,374.507 82.984 C 374.603 83.140,374.539 83.179,374.324 83.097 C 374.069 82.999,374.048 82.904,374.234 82.680 C 374.409 82.469,374.411 82.390,374.240 82.390 C 374.108 82.390,374.004 82.049,374.004 81.617 C 374.004 81.113,373.846 80.676,373.548 80.359 C 373.298 80.093,373.199 79.874,373.328 79.874 C 373.458 79.874,373.660 80.039,373.778 80.241 C 373.978 80.586,373.992 80.584,373.998 80.221 C 374.001 80.008,373.817 79.786,373.585 79.725 C 373.231 79.633,373.166 79.439,373.166 78.487 C 373.166 77.498,373.114 77.358,372.746 77.358 C 372.377 77.358,372.327 77.219,372.327 76.180 C 372.327 75.099,372.298 75.025,371.972 75.289 C 371.777 75.447,371.673 75.482,371.740 75.367 C 371.941 75.023,371.589 73.476,371.322 73.531 C 371.077 73.582,370.996 73.341,370.758 71.861 C 370.689 71.432,370.484 70.997,370.301 70.895 C 370.116 70.791,369.969 70.439,369.970 70.103 C 369.971 69.441,369.602 69.056,369.348 69.456 C 369.212 69.670,369.073 68.824,369.158 68.291 C 369.171 68.205,369.064 68.133,368.920 68.131 C 368.742 68.129,368.759 68.056,368.973 67.903 C 369.225 67.723,369.194 67.699,368.816 67.782 C 368.382 67.877,368.344 67.810,368.344 66.962 C 368.344 66.177,368.280 66.038,367.925 66.038 C 367.580 66.038,367.505 65.897,367.502 65.252 C 367.500 64.741,367.437 64.564,367.321 64.745 C 367.188 64.955,367.105 64.903,366.988 64.536 C 366.779 63.878,366.736 63.691,366.699 63.260 C 366.681 63.058,366.525 62.893,366.352 62.893 C 366.179 62.893,366.038 62.713,366.038 62.493 C 366.038 62.197,365.929 62.122,365.618 62.203 C 365.248 62.300,365.199 62.210,365.199 61.430 C 365.199 60.724,365.115 60.526,364.780 60.438 C 364.549 60.378,364.350 60.222,364.336 60.091 C 364.323 59.960,364.290 59.759,364.264 59.644 C 364.237 59.528,364.200 59.316,364.183 59.172 C 364.165 59.028,364.009 58.910,363.836 58.910 C 363.546 58.910,363.424 58.650,363.506 58.203 C 363.524 58.102,363.405 58.071,363.240 58.134 C 363.024 58.217,362.905 58.022,362.810 57.426 C 362.711 56.805,362.581 56.604,362.281 56.604 C 361.987 56.604,361.913 56.495,361.994 56.184 C 362.078 55.863,362.000 55.765,361.660 55.765 C 361.313 55.765,361.216 55.636,361.216 55.174 C 361.216 54.805,361.019 54.412,360.692 54.127 C 360.404 53.877,360.168 53.577,360.168 53.461 C 360.168 53.344,360.026 53.249,359.853 53.249 C 359.673 53.249,359.539 53.060,359.539 52.806 C 359.539 52.465,359.441 52.388,359.119 52.472 C 358.786 52.559,358.700 52.478,358.700 52.077 C 358.700 51.799,358.595 51.596,358.465 51.625 C 358.336 51.654,358.120 51.361,357.986 50.974 C 357.851 50.588,357.517 50.152,357.245 50.007 C 356.881 49.812,356.828 49.710,357.044 49.623 C 357.251 49.539,357.199 49.462,356.866 49.361 C 356.603 49.281,356.394 49.049,356.394 48.837 C 356.394 48.604,356.212 48.429,355.922 48.385 C 355.663 48.345,355.477 48.189,355.509 48.038 C 355.541 47.886,355.376 47.713,355.142 47.651 C 354.908 47.590,354.717 47.410,354.717 47.250 C 354.717 47.091,354.575 46.960,354.403 46.960 C 354.228 46.960,354.088 46.774,354.088 46.541 C 354.088 46.310,354.017 46.133,353.931 46.146 C 353.467 46.220,353.249 46.078,353.249 45.702 C 353.249 45.423,353.110 45.283,352.830 45.283 C 352.551 45.283,352.411 45.143,352.411 44.864 C 352.411 44.584,352.271 44.444,351.992 44.444 C 351.712 44.444,351.572 44.305,351.572 44.025 C 351.572 43.746,351.433 43.606,351.153 43.606 C 350.874 43.606,350.734 43.466,350.734 43.187 C 350.734 42.907,350.594 42.767,350.314 42.767 C 350.082 42.767,349.895 42.628,349.895 42.453 C 349.895 42.280,349.765 42.138,349.605 42.138 C 349.446 42.138,349.266 41.950,349.206 41.719 C 349.130 41.430,348.911 41.295,348.500 41.283 C 348.172 41.274,348.016 41.221,348.154 41.165 C 348.291 41.109,348.351 40.925,348.287 40.757 C 348.196 40.521,348.102 40.506,347.879 40.691 C 347.644 40.886,347.589 40.823,347.589 40.362 C 347.589 39.976,347.459 39.759,347.184 39.687 C 346.962 39.629,346.732 39.458,346.674 39.307 C 346.617 39.157,346.280 38.970,345.926 38.892 C 345.572 38.814,345.283 38.617,345.283 38.453 C 345.283 38.289,345.094 38.155,344.864 38.155 C 344.584 38.155,344.444 38.015,344.444 37.736 C 344.444 37.461,344.305 37.317,344.039 37.317 C 343.816 37.317,343.574 37.128,343.501 36.897 C 343.402 36.585,343.184 36.478,342.648 36.478 C 342.068 36.478,341.929 36.397,341.929 36.059 C 341.929 35.733,341.789 35.639,341.300 35.639 C 340.902 35.639,340.671 35.532,340.671 35.347 C 340.671 35.187,340.528 35.001,340.354 34.934 C 340.180 34.867,340.062 34.693,340.092 34.547 C 340.122 34.401,339.840 34.190,339.465 34.078 C 339.091 33.967,338.784 33.754,338.784 33.604 C 338.784 33.428,338.492 33.333,337.945 33.333 C 337.247 33.333,337.107 33.263,337.107 32.914 C 337.107 32.642,336.967 32.495,336.710 32.495 C 336.492 32.495,336.260 32.355,336.194 32.184 C 336.120 31.991,335.939 31.925,335.718 32.010 C 335.473 32.104,335.410 32.068,335.516 31.896 C 335.601 31.759,335.593 31.659,335.498 31.676 C 335.022 31.758,334.801 31.616,334.801 31.228 C 334.801 30.992,334.683 30.815,334.539 30.833 C 333.633 30.951,333.124 30.797,333.124 30.405 C 333.124 30.067,332.989 29.997,332.389 30.019 C 331.540 30.051,331.217 29.838,331.662 29.540 C 331.932 29.358,331.931 29.337,331.656 29.366 C 330.549 29.484,329.979 29.336,329.979 28.931 C 329.979 28.651,329.839 28.512,329.560 28.512 C 329.314 28.512,329.140 28.372,329.140 28.175 C 329.140 27.965,329.025 27.882,328.833 27.956 C 328.663 28.021,328.469 27.984,328.401 27.873 C 328.333 27.763,327.964 27.673,327.580 27.673 C 327.060 27.673,326.856 27.567,326.774 27.254 C 326.690 26.933,326.488 26.834,325.911 26.834 C 325.381 26.834,325.157 26.741,325.157 26.520 C 325.157 26.347,324.992 26.195,324.790 26.181 C 324.589 26.168,324.329 26.135,324.214 26.108 C 324.099 26.082,323.756 26.045,323.452 26.028 C 323.105 26.008,322.862 25.849,322.797 25.602 C 322.717 25.295,322.492 25.205,321.783 25.195 C 321.212 25.187,320.783 25.060,320.633 24.855 C 320.477 24.641,320.062 24.528,319.434 24.528 C 318.906 24.528,318.415 24.434,318.344 24.319 C 318.273 24.203,318.330 24.109,318.471 24.109 C 318.895 24.109,318.485 23.833,317.977 23.777 C 317.717 23.748,317.057 23.717,316.509 23.707 C 315.659 23.692,315.514 23.628,315.514 23.270 C 315.514 22.937,315.374 22.851,314.830 22.851 C 314.374 22.851,314.060 22.712,313.885 22.432 C 313.645 22.048,313.396 22.013,310.900 22.013 C 308.220 22.013,308.050 21.970,308.151 21.331 C 308.165 21.245,307.416 21.174,306.487 21.174 C 305.545 21.174,304.848 21.091,304.913 20.986 C 304.977 20.883,304.880 20.742,304.699 20.672 C 304.222 20.489,304.041 20.522,304.372 20.732 C 304.572 20.858,304.587 20.955,304.423 21.056 C 304.295 21.136,304.133 21.053,304.064 20.873 C 303.858 20.337,96.181 20.376,96.366 20.912 C 96.475 21.229,96.450 21.225,96.184 20.883 C 95.906 20.526,95.861 20.521,95.743 20.830 M283.754 29.352 C 283.917 29.617,283.236 29.899,283.050 29.643 C 282.887 29.417,280.919 29.387,281.059 29.612 C 281.113 29.699,280.968 29.769,280.738 29.769 C 280.507 29.769,280.273 29.695,280.217 29.605 C 280.161 29.515,279.707 29.486,279.209 29.540 L 278.302 29.640 279.245 29.794 C 281.355 30.139,285.402 29.940,284.370 29.542 C 284.084 29.431,284.205 29.390,284.776 29.402 C 285.507 29.418,285.551 29.449,285.208 29.700 C 284.869 29.947,284.935 29.979,285.792 29.979 C 286.359 29.979,286.808 29.871,286.880 29.717 C 286.978 29.507,287.027 29.507,287.124 29.717 C 287.192 29.862,287.618 29.979,288.080 29.979 C 288.582 29.979,288.862 29.896,288.784 29.769 C 288.713 29.654,288.749 29.560,288.864 29.560 C 288.979 29.560,289.129 29.649,289.197 29.758 C 289.264 29.868,290.189 29.952,291.253 29.945 C 298.657 29.901,304.621 30.004,304.516 30.174 C 304.356 30.434,304.760 30.671,305.054 30.489 C 305.216 30.389,305.200 30.291,305.001 30.166 C 304.782 30.027,304.804 29.985,305.098 29.982 C 305.383 29.980,305.446 30.084,305.347 30.394 C 305.233 30.754,305.309 30.807,305.910 30.787 C 308.039 30.716,310.063 30.840,310.063 31.040 C 310.063 31.162,309.945 31.202,309.801 31.129 C 309.657 31.056,309.705 31.132,309.908 31.299 C 310.123 31.474,310.781 31.613,311.480 31.629 C 313.173 31.668,314.046 31.863,314.046 32.204 C 314.046 32.402,314.306 32.495,314.862 32.495 C 315.394 32.495,315.720 32.604,315.799 32.809 C 315.886 33.035,316.240 33.124,317.060 33.124 C 318.097 33.124,318.190 33.162,318.090 33.543 C 317.992 33.918,318.084 33.962,318.962 33.962 C 319.849 33.962,319.931 34.003,319.811 34.382 C 319.695 34.747,319.774 34.801,320.419 34.801 C 320.945 34.801,321.224 34.922,321.384 35.220 C 321.520 35.475,321.823 35.639,322.154 35.639 C 322.454 35.639,322.836 35.805,323.002 36.006 C 323.290 36.356,323.299 36.356,323.189 36.006 C 323.126 35.805,323.174 35.639,323.297 35.639 C 323.419 35.639,323.570 35.833,323.632 36.071 C 323.697 36.321,323.863 36.457,324.025 36.394 C 324.179 36.335,324.358 36.373,324.423 36.478 C 324.489 36.583,324.704 36.609,324.902 36.534 C 325.198 36.424,325.217 36.455,325.011 36.708 C 324.803 36.965,324.857 37.025,325.326 37.064 C 325.637 37.090,326.053 37.322,326.252 37.580 L 326.613 38.050 326.526 37.579 C 326.419 36.995,326.744 36.949,326.895 37.526 C 326.955 37.757,327.144 37.945,327.314 37.945 C 327.485 37.945,327.673 38.134,327.734 38.365 C 327.818 38.686,328.020 38.784,328.597 38.784 C 329.278 38.784,329.452 38.933,329.380 39.451 C 329.369 39.530,329.627 39.587,329.954 39.577 C 330.705 39.556,331.089 39.789,330.940 40.176 C 330.875 40.345,330.939 40.463,331.083 40.445 C 331.767 40.357,332.495 40.485,332.495 40.693 C 332.495 40.823,332.333 40.869,332.128 40.798 C 331.822 40.691,331.829 40.722,332.168 40.985 C 332.392 41.158,332.746 41.300,332.954 41.300 C 333.163 41.300,333.333 41.441,333.333 41.614 C 333.333 41.834,333.555 41.929,334.067 41.929 C 334.652 41.929,334.801 42.011,334.801 42.333 C 334.801 42.594,334.969 42.762,335.273 42.805 C 335.587 42.850,335.724 42.994,335.683 43.239 C 335.637 43.508,335.763 43.606,336.154 43.606 C 336.448 43.606,336.688 43.705,336.688 43.826 C 336.688 43.948,336.971 44.146,337.317 44.266 C 337.662 44.387,337.945 44.621,337.945 44.786 C 337.945 44.951,338.111 45.148,338.312 45.224 C 338.514 45.300,338.774 45.484,338.889 45.633 C 339.004 45.782,339.312 45.935,339.573 45.974 C 339.834 46.012,340.164 46.169,340.307 46.323 C 340.513 46.545,340.512 46.572,340.304 46.454 C 340.160 46.373,340.042 46.406,340.042 46.529 C 340.042 46.651,340.325 46.751,340.671 46.751 C 341.017 46.751,341.289 46.821,341.275 46.908 C 341.202 47.371,341.344 47.589,341.719 47.589 C 341.956 47.589,342.138 47.729,342.138 47.910 C 342.138 48.087,342.280 48.285,342.453 48.352 C 342.626 48.418,342.767 48.613,342.767 48.784 C 342.767 48.956,342.956 49.145,343.187 49.206 C 343.419 49.266,343.606 49.491,343.606 49.710 C 343.606 49.965,343.754 50.105,344.025 50.105 C 344.258 50.105,344.444 50.245,344.444 50.419 C 344.444 50.594,344.631 50.734,344.864 50.734 C 345.143 50.734,345.283 50.874,345.283 51.153 C 345.283 51.433,345.423 51.572,345.702 51.572 C 345.982 51.572,346.122 51.712,346.122 51.992 C 346.122 52.225,346.261 52.411,346.436 52.411 C 346.611 52.411,346.751 52.597,346.751 52.830 C 346.751 53.101,346.890 53.249,347.145 53.249 C 347.364 53.249,347.589 53.437,347.650 53.669 C 347.710 53.899,347.910 54.088,348.094 54.088 C 348.277 54.088,348.428 54.230,348.428 54.403 C 348.428 54.577,348.614 54.717,348.847 54.717 C 349.115 54.717,349.266 54.857,349.266 55.104 C 349.266 55.317,349.455 55.661,349.686 55.870 C 349.916 56.079,350.105 56.417,350.105 56.622 C 350.105 56.827,350.294 57.055,350.524 57.128 C 350.755 57.201,350.943 57.391,350.943 57.551 C 350.943 57.710,351.068 57.916,351.221 58.008 C 351.374 58.101,351.560 58.341,351.634 58.543 C 351.708 58.745,351.913 58.910,352.090 58.910 C 352.266 58.910,352.411 59.051,352.411 59.224 C 352.411 59.498,352.636 59.621,353.057 59.575 C 353.125 59.568,353.193 59.675,353.210 59.812 C 353.227 59.950,353.268 60.299,353.301 60.587 C 353.342 60.935,353.484 61.101,353.725 61.082 C 354.042 61.057,354.195 61.379,354.113 61.897 C 354.099 61.984,354.277 62.055,354.507 62.055 C 354.738 62.055,354.938 62.196,354.953 62.369 C 354.967 62.542,355.003 62.778,355.031 62.893 C 355.060 63.008,355.097 63.173,355.113 63.260 C 355.129 63.346,355.240 63.276,355.358 63.103 C 355.549 62.823,355.569 62.823,355.539 63.103 C 355.444 63.995,355.571 64.361,355.975 64.361 C 356.254 64.361,356.394 64.500,356.394 64.780 C 356.394 65.010,356.583 65.388,356.813 65.618 C 357.044 65.849,357.233 66.188,357.233 66.372 C 357.233 66.556,357.421 66.755,357.652 66.816 C 357.967 66.898,358.071 67.102,358.071 67.635 C 358.071 68.204,358.154 68.344,358.491 68.344 C 358.832 68.344,358.910 68.484,358.910 69.097 C 358.910 69.674,359.008 69.876,359.329 69.960 C 359.560 70.021,359.748 70.214,359.748 70.389 C 359.748 70.565,359.914 70.837,360.115 70.994 C 360.457 71.260,360.453 71.271,360.063 71.157 C 359.670 71.043,359.667 71.054,360.010 71.337 C 360.212 71.503,360.377 71.794,360.377 71.983 C 360.377 72.187,360.548 72.327,360.797 72.327 C 361.157 72.327,361.216 72.467,361.216 73.329 C 361.216 74.090,361.317 74.403,361.635 74.633 C 361.905 74.827,362.055 75.176,362.055 75.609 C 362.055 76.098,362.169 76.318,362.474 76.415 C 362.765 76.507,362.893 76.732,362.893 77.149 C 362.893 77.565,363.022 77.790,363.312 77.883 C 363.649 77.989,363.732 78.200,363.732 78.945 C 363.732 79.547,363.824 79.875,363.994 79.877 C 364.168 79.880,364.151 79.948,363.941 80.084 C 363.673 80.258,363.680 80.288,363.994 80.290 C 364.289 80.293,364.361 80.480,364.361 81.249 C 364.361 81.799,364.445 82.153,364.560 82.082 C 364.891 81.877,365.199 82.719,365.199 83.830 C 365.199 84.693,365.273 84.901,365.618 85.010 C 365.849 85.084,366.038 85.243,366.038 85.365 C 366.038 85.496,365.888 85.470,365.671 85.302 C 365.321 85.031,365.321 85.038,365.671 85.450 C 365.933 85.759,366.038 86.247,366.038 87.163 C 366.038 87.906,366.140 88.508,366.280 88.594 C 366.438 88.693,366.465 88.651,366.355 88.475 C 366.245 88.295,366.286 88.238,366.480 88.303 C 366.831 88.419,366.845 88.563,366.875 92.605 C 366.889 94.360,366.984 95.849,367.088 95.913 C 367.192 95.978,367.224 96.169,367.159 96.338 C 367.094 96.507,367.140 96.646,367.261 96.646 C 367.382 96.646,367.442 96.444,367.395 96.197 C 367.347 95.950,367.397 95.596,367.505 95.410 C 367.829 94.856,367.777 115.925,367.453 116.623 C 367.309 116.934,367.131 117.188,367.059 117.189 C 366.986 117.190,366.911 118.205,366.892 119.444 C 366.867 121.046,366.773 121.783,366.566 121.991 C 366.224 122.336,366.217 121.940,366.556 121.384 C 366.721 121.112,366.699 121.109,366.392 121.357 C 366.125 121.574,366.038 121.981,366.038 123.011 C 366.038 124.059,365.954 124.438,365.679 124.640 C 365.322 124.901,365.249 125.275,365.216 127.011 C 365.203 127.737,365.114 127.944,364.780 128.031 C 364.425 128.124,364.361 128.317,364.361 129.292 C 364.361 130.229,364.302 130.421,364.046 130.323 C 363.790 130.224,363.732 130.415,363.732 131.348 C 363.732 132.430,363.626 132.611,363.050 132.520 C 362.964 132.506,362.892 132.849,362.890 133.281 C 362.888 133.713,362.795 134.209,362.683 134.382 C 362.548 134.591,362.479 134.609,362.477 134.434 C 362.475 134.290,362.379 134.172,362.264 134.172 C 362.149 134.172,362.055 134.691,362.055 135.325 C 362.055 136.338,362.004 136.478,361.635 136.478 C 361.285 136.478,361.216 136.618,361.216 137.326 C 361.216 138.011,361.147 138.162,360.857 138.112 C 360.635 138.074,360.466 138.211,360.416 138.470 C 360.371 138.700,360.200 139.040,360.036 139.226 C 359.872 139.411,359.725 139.893,359.710 140.298 C 359.688 140.892,359.611 141.015,359.311 140.937 C 359.018 140.860,358.925 140.988,358.872 141.541 C 358.821 142.074,358.717 142.228,358.438 142.182 C 358.138 142.131,358.071 142.278,358.071 142.990 C 358.071 143.686,358.007 143.836,357.750 143.737 C 357.537 143.655,357.363 143.788,357.231 144.134 C 357.122 144.420,356.941 144.654,356.828 144.654 C 356.715 144.654,356.561 144.984,356.485 145.388 C 356.386 145.919,356.238 146.122,355.952 146.122 C 355.703 146.122,355.556 146.269,355.556 146.518 C 355.556 146.737,355.414 146.970,355.241 147.036 C 355.057 147.107,354.927 147.421,354.927 147.792 C 354.927 148.288,354.834 148.428,354.507 148.428 C 354.228 148.428,354.088 148.567,354.088 148.847 C 354.088 149.126,353.948 149.266,353.669 149.266 C 353.436 149.266,353.249 149.406,353.249 149.581 C 353.249 149.754,353.061 150.084,352.830 150.314 C 352.600 150.545,352.411 150.970,352.411 151.258 C 352.411 151.651,352.301 151.782,351.969 151.782 C 351.663 151.782,351.564 151.878,351.648 152.096 C 351.730 152.310,351.637 152.411,351.356 152.411 C 351.083 152.411,350.943 152.553,350.943 152.830 C 350.943 153.100,350.804 153.249,350.550 153.249 C 350.285 153.249,350.118 153.445,350.037 153.851 C 349.963 154.223,349.652 154.622,349.225 154.896 C 348.754 155.197,348.650 155.340,348.899 155.342 C 349.101 155.344,349.266 155.440,349.266 155.556 C 349.266 155.671,349.129 155.765,348.962 155.765 C 348.795 155.765,348.574 155.915,348.472 156.098 C 348.369 156.282,348.223 156.423,348.147 156.413 C 347.718 156.355,347.615 156.426,347.722 156.706 C 347.801 156.911,347.651 157.090,347.283 157.229 C 346.976 157.346,346.781 157.531,346.849 157.641 C 346.916 157.751,346.781 157.943,346.547 158.068 C 346.313 158.193,346.122 158.434,346.122 158.603 C 346.122 158.772,345.933 158.910,345.702 158.910 C 345.423 158.910,345.283 159.050,345.283 159.329 C 345.283 159.609,345.143 159.748,344.864 159.748 C 344.584 159.748,344.444 159.888,344.444 160.168 C 344.444 160.447,344.305 160.587,344.025 160.587 C 343.792 160.587,343.606 160.727,343.606 160.901 C 343.606 161.074,343.429 161.216,343.212 161.216 C 342.694 161.216,342.218 161.759,342.601 161.913 C 342.750 161.973,342.654 162.029,342.388 162.038 C 342.122 162.047,341.956 162.138,342.019 162.240 C 342.082 162.343,341.975 162.555,341.781 162.712 C 341.539 162.909,341.478 162.916,341.586 162.736 C 341.673 162.592,341.644 162.474,341.522 162.474 C 341.400 162.474,341.300 162.557,341.300 162.659 C 341.300 162.761,341.111 162.894,340.881 162.954 C 340.650 163.014,340.461 163.214,340.461 163.398 C 340.461 163.592,340.286 163.732,340.042 163.732 C 339.762 163.732,339.623 163.871,339.623 164.151 C 339.623 164.438,339.483 164.570,339.181 164.570 C 338.874 164.570,338.776 164.666,338.860 164.885 C 338.943 165.102,338.846 165.199,338.548 165.199 C 338.292 165.199,338.071 165.370,338.006 165.618 C 337.935 165.889,337.720 166.038,337.399 166.038 C 337.125 166.038,336.783 166.226,336.639 166.457 C 336.495 166.688,336.211 166.876,336.008 166.876 C 335.779 166.876,335.639 167.035,335.639 167.296 C 335.639 167.575,335.500 167.715,335.220 167.715 C 334.941 167.715,334.801 167.855,334.801 168.134 C 334.801 168.476,334.661 168.553,334.045 168.553 C 333.459 168.553,333.316 168.624,333.409 168.868 C 333.492 169.085,333.396 169.182,333.097 169.182 C 332.841 169.182,332.620 169.353,332.556 169.602 C 332.449 170.009,332.167 170.112,331.379 170.029 C 331.148 170.005,330.951 170.161,330.882 170.424 C 330.820 170.664,330.599 170.860,330.391 170.860 C 329.753 170.860,329.371 171.089,329.491 171.401 C 329.571 171.611,329.444 171.698,329.058 171.698 C 328.651 171.698,328.512 171.805,328.512 172.117 C 328.512 172.467,328.372 172.537,327.673 172.537 C 326.974 172.537,326.834 172.607,326.834 172.956 C 326.834 173.296,326.695 173.375,326.094 173.375 C 325.629 173.375,325.309 173.492,325.233 173.690 C 325.163 173.872,324.849 174.004,324.486 174.004 C 324.036 174.004,323.829 174.122,323.750 174.423 C 323.664 174.754,323.465 174.843,322.804 174.843 C 322.155 174.843,321.994 174.912,322.086 175.151 C 322.151 175.320,322.114 175.514,322.003 175.582 C 321.893 175.650,321.795 175.583,321.786 175.432 C 321.774 175.221,321.745 175.218,321.664 175.419 C 321.606 175.563,321.364 175.681,321.127 175.681 C 320.890 175.681,320.560 175.846,320.394 176.048 C 320.118 176.383,320.101 176.384,320.203 176.059 C 320.281 175.810,320.223 175.738,320.010 175.819 C 319.843 175.883,319.706 176.067,319.706 176.228 C 319.706 176.494,319.043 176.635,318.279 176.533 C 318.123 176.512,318.033 176.657,318.070 176.870 C 318.139 177.274,318.106 177.285,316.614 177.349 C 316.067 177.372,315.737 177.439,315.882 177.498 C 316.455 177.729,315.846 177.987,314.729 177.987 C 313.819 177.987,313.442 178.088,313.081 178.427 C 312.729 178.757,312.349 178.864,311.548 178.858 C 310.962 178.854,310.482 178.939,310.482 179.048 C 310.482 179.156,310.411 179.234,310.325 179.220 C 309.931 179.158,309.774 179.268,310.027 179.428 C 310.195 179.535,309.696 179.620,308.769 179.643 C 307.924 179.664,307.201 179.773,307.162 179.885 C 307.123 179.997,306.913 180.184,306.695 180.301 C 306.376 180.471,306.323 180.450,306.421 180.194 C 306.489 180.018,306.644 179.874,306.766 179.874 C 306.888 179.874,306.939 179.825,306.878 179.764 C 306.685 179.571,306.080 179.909,306.080 180.211 C 306.080 180.493,301.455 180.596,291.626 180.533 C 290.204 180.524,289.327 180.608,289.123 180.773 C 288.875 180.974,288.842 180.972,288.966 180.765 C 289.080 180.576,288.922 180.503,288.395 180.503 C 287.994 180.503,287.611 180.621,287.544 180.765 C 287.446 180.975,287.397 180.975,287.299 180.765 C 287.223 180.601,286.737 180.503,286.001 180.503 C 284.922 180.503,284.859 180.529,285.232 180.811 C 285.782 181.226,285.341 181.213,284.489 180.788 C 283.924 180.506,283.399 180.466,281.595 180.568 C 279.210 180.703,278.285 181.027,280.284 181.027 C 280.959 181.027,281.402 180.958,281.269 180.873 C 281.121 180.779,281.193 180.718,281.457 180.716 C 281.693 180.714,281.990 180.816,282.116 180.942 C 282.282 181.108,282.463 181.108,282.773 180.942 C 283.284 180.669,283.717 180.641,283.562 180.892 C 283.501 180.991,283.707 181.031,284.021 180.981 C 284.467 180.909,284.523 180.938,284.277 181.112 C 283.724 181.503,115.299 181.412,115.816 181.021 C 116.206 180.725,116.200 180.713,115.665 180.713 C 115.256 180.713,115.140 180.796,115.228 181.027 C 115.329 181.291,115.081 181.341,113.702 181.335 C 112.439 181.330,112.144 181.277,112.437 181.107 C 112.647 180.985,113.071 180.947,113.380 181.023 C 113.844 181.138,113.894 181.114,113.669 180.885 C 113.290 180.499,107.746 180.394,107.508 180.768 C 107.378 180.973,107.343 180.972,107.341 180.765 C 107.339 180.621,107.096 180.503,106.801 180.503 C 106.497 180.503,106.321 180.594,106.394 180.713 C 106.465 180.828,106.429 180.922,106.314 180.922 C 106.199 180.922,106.050 180.834,105.983 180.727 C 105.917 180.619,105.133 180.536,104.242 180.542 C 96.695 180.590,94.759 180.507,94.744 180.136 C 94.730 179.794,94.720 179.793,94.587 180.129 C 94.483 180.390,94.359 180.433,94.130 180.286 C 93.850 180.106,93.850 180.061,94.130 179.877 C 94.351 179.732,93.984 179.670,92.889 179.668 C 91.739 179.665,91.233 179.574,90.949 179.318 C 90.720 179.110,90.566 179.068,90.566 179.213 C 90.566 179.346,90.676 179.455,90.811 179.455 C 90.945 179.455,90.995 179.516,90.921 179.590 C 90.733 179.777,90.125 179.240,90.266 179.012 C 90.329 178.910,89.935 178.826,89.389 178.826 C 88.758 178.826,88.258 178.699,88.011 178.476 C 87.605 178.109,87.252 178.034,85.803 178.005 C 85.107 177.991,84.945 177.920,85.039 177.673 C 85.139 177.414,84.930 177.358,83.866 177.358 C 82.689 177.358,82.583 177.322,82.698 176.960 C 82.806 176.618,82.715 176.562,82.056 176.562 C 81.633 176.562,81.205 176.434,81.105 176.279 C 80.954 176.045,80.887 176.051,80.716 176.310 C 80.512 176.621,80.392 176.383,80.478 175.839 C 80.492 175.752,80.072 175.681,79.546 175.681 C 78.684 175.681,78.601 175.640,78.721 175.262 C 78.841 174.886,78.759 174.843,77.920 174.843 C 77.159 174.843,76.991 174.775,77.015 174.476 C 77.036 174.215,76.862 174.088,76.416 174.038 C 76.070 173.998,75.720 173.857,75.637 173.723 C 75.486 173.480,75.359 173.445,74.476 173.399 C 74.135 173.382,74.003 173.245,74.001 172.904 C 73.998 172.522,73.959 172.492,73.795 172.746 C 73.659 172.956,73.590 172.973,73.588 172.799 C 73.586 172.648,73.318 172.537,72.956 172.537 C 72.467 172.537,72.327 172.444,72.327 172.117 C 72.327 171.770,72.187 171.698,71.508 171.698 C 70.792 171.698,70.703 171.645,70.799 171.279 C 70.883 170.956,70.805 170.860,70.458 170.860 C 70.210 170.860,69.947 170.701,69.873 170.508 C 69.752 170.193,69.721 170.199,69.577 170.560 C 69.425 170.942,69.409 170.938,69.275 170.493 C 69.193 170.221,68.966 170.021,68.739 170.021 C 68.479 170.021,68.344 169.872,68.344 169.587 C 68.344 169.257,68.231 169.170,67.872 169.222 C 67.613 169.260,67.275 169.148,67.123 168.974 C 66.878 168.696,66.861 168.696,66.981 168.973 C 67.070 169.178,67.013 169.160,66.816 168.920 C 66.651 168.719,66.408 168.553,66.277 168.553 C 66.145 168.553,66.038 168.365,66.038 168.134 C 66.038 167.863,65.898 167.715,65.641 167.715 C 65.423 167.715,65.192 167.579,65.128 167.412 C 65.064 167.245,64.676 167.046,64.267 166.969 C 63.726 166.868,63.522 166.721,63.522 166.434 C 63.522 166.216,63.381 166.038,63.208 166.038 C 63.035 166.038,62.893 165.894,62.893 165.718 C 62.893 165.542,62.657 165.309,62.369 165.199 C 62.081 165.090,61.845 164.903,61.845 164.785 C 61.845 164.667,61.515 164.570,61.111 164.570 C 60.517 164.570,60.377 164.490,60.377 164.151 C 60.377 163.871,60.238 163.732,59.958 163.732 C 59.679 163.732,59.539 163.592,59.539 163.312 C 59.539 163.033,59.399 162.893,59.119 162.893 C 58.840 162.893,58.700 162.753,58.700 162.474 C 58.700 162.243,58.570 162.055,58.410 162.055 C 58.251 162.055,58.071 161.866,58.011 161.635 C 57.950 161.405,57.751 161.216,57.567 161.216 C 57.383 161.216,57.233 161.074,57.233 160.901 C 57.233 160.727,57.046 160.587,56.813 160.587 C 56.531 160.587,56.394 160.447,56.394 160.159 C 56.394 159.867,56.277 159.750,56.027 159.792 C 55.782 159.833,55.638 159.696,55.593 159.382 C 55.550 159.078,55.382 158.910,55.122 158.910 C 54.857 158.910,54.717 158.765,54.717 158.491 C 54.717 158.260,54.586 158.071,54.427 158.071 C 54.267 158.071,54.088 157.883,54.027 157.652 C 53.967 157.421,53.778 157.233,53.608 157.233 C 53.438 157.233,53.249 157.044,53.189 156.813 C 53.128 156.583,52.929 156.394,52.745 156.394 C 52.561 156.394,52.411 156.253,52.411 156.080 C 52.411 155.905,52.225 155.765,51.992 155.765 C 51.712 155.765,51.572 155.625,51.572 155.346 C 51.572 155.066,51.433 154.927,51.153 154.927 C 50.922 154.927,50.734 154.790,50.734 154.623 C 50.734 154.455,50.586 154.236,50.406 154.135 C 50.226 154.034,50.056 153.798,50.028 153.611 C 50.001 153.423,49.832 153.100,49.654 152.893 C 49.476 152.685,49.271 152.351,49.200 152.149 C 49.128 151.947,48.925 151.782,48.749 151.782 C 48.567 151.782,48.428 151.599,48.428 151.363 C 48.428 151.092,48.288 150.943,48.033 150.943 C 47.814 150.943,47.589 150.756,47.528 150.524 C 47.468 150.294,47.268 150.105,47.085 150.105 C 46.841 150.105,46.751 149.901,46.751 149.351 C 46.751 148.774,46.652 148.572,46.331 148.488 C 46.101 148.428,45.912 148.204,45.912 147.991 C 45.912 147.732,45.807 147.642,45.597 147.723 C 45.375 147.808,45.283 147.705,45.283 147.373 C 45.283 147.114,45.118 146.766,44.916 146.601 C 44.676 146.404,44.658 146.347,44.864 146.436 C 45.069 146.525,45.051 146.468,44.811 146.271 C 44.610 146.106,44.444 145.816,44.444 145.627 C 44.444 145.423,44.274 145.283,44.025 145.283 C 43.640 145.283,43.453 144.715,43.587 143.955 C 43.604 143.858,43.427 143.729,43.193 143.668 C 42.959 143.607,42.767 143.397,42.767 143.202 C 42.767 143.007,42.630 142.664,42.463 142.440 C 42.170 142.047,42.163 142.050,42.278 142.505 C 42.348 142.784,42.301 142.977,42.163 142.977 C 42.029 142.977,41.929 142.616,41.929 142.138 C 41.929 141.533,41.841 141.300,41.614 141.300 C 41.310 141.300,41.211 140.964,41.289 140.199 C 41.322 139.872,41.085 139.734,40.618 139.807 C 40.532 139.821,40.461 139.449,40.461 138.981 C 40.461 138.513,40.386 138.177,40.294 138.234 C 39.952 138.445,39.640 138.014,39.589 137.258 C 39.550 136.667,39.446 136.478,39.161 136.478 C 38.860 136.478,38.784 136.306,38.784 135.627 C 38.784 135.037,38.710 134.822,38.542 134.926 C 38.382 135.025,38.357 134.982,38.469 134.801 C 38.574 134.632,38.506 134.431,38.292 134.274 C 38.102 134.135,37.925 133.772,37.900 133.468 C 37.873 133.138,37.724 132.908,37.533 132.899 C 37.310 132.889,37.340 132.829,37.631 132.704 C 38.031 132.532,38.029 132.524,37.579 132.509 C 37.193 132.497,37.107 132.375,37.107 131.837 C 37.107 131.467,36.955 131.067,36.761 130.925 C 36.486 130.724,36.471 130.637,36.688 130.503 C 36.881 130.384,36.912 130.415,36.792 130.608 C 36.673 130.801,36.704 130.832,36.897 130.713 C 37.114 130.579,37.099 130.491,36.824 130.291 C 36.612 130.136,36.478 129.742,36.478 129.275 C 36.478 128.855,36.378 128.512,36.256 128.512 C 36.134 128.512,36.093 128.417,36.164 128.300 C 36.236 128.184,36.147 128.033,35.967 127.964 C 35.727 127.871,35.639 127.540,35.639 126.720 C 35.639 126.104,35.539 125.539,35.416 125.463 C 35.048 125.236,34.930 125.539,35.231 125.938 C 35.487 126.278,35.481 126.282,35.161 125.993 C 34.900 125.757,34.802 125.280,34.779 124.137 C 34.760 123.224,34.676 122.713,34.573 122.881 C 34.428 123.115,34.354 123.113,34.128 122.871 C 33.979 122.711,33.965 122.640,34.098 122.714 C 34.230 122.788,34.391 122.709,34.457 122.538 C 34.526 122.359,34.468 122.248,34.322 122.277 C 34.153 122.310,34.045 121.939,34.002 121.174 C 33.958 120.399,33.806 119.882,33.539 119.598 C 33.205 119.242,33.137 118.816,33.109 116.923 C 33.091 115.684,32.992 114.619,32.890 114.555 C 32.788 114.492,32.704 114.299,32.704 114.126 C 32.704 113.953,32.799 113.870,32.914 113.941 C 33.033 114.015,33.124 113.839,33.124 113.534 C 33.124 113.239,33.024 112.998,32.902 112.998 C 32.780 112.998,32.734 113.086,32.800 113.193 C 32.867 113.300,32.825 113.447,32.708 113.520 C 32.585 113.596,32.495 113.427,32.495 113.122 C 32.495 112.737,32.581 112.625,32.809 112.712 C 33.047 112.804,33.124 112.675,33.124 112.182 C 33.124 111.824,33.023 111.530,32.900 111.530 C 32.772 111.530,32.733 111.709,32.809 111.950 C 32.882 112.180,32.863 112.369,32.767 112.369 C 32.670 112.369,32.567 111.796,32.537 111.095 C 32.502 110.264,32.558 109.868,32.699 109.955 C 32.841 110.043,32.914 109.266,32.914 107.652 C 32.914 106.167,32.836 105.264,32.715 105.339 C 32.595 105.414,32.516 104.747,32.516 103.664 C 32.516 101.776,32.624 101.184,32.936 101.376 C 33.039 101.440,33.124 101.292,33.124 101.048 C 33.124 100.749,33.038 100.655,32.862 100.762 C 32.662 100.882,32.663 100.840,32.869 100.586 C 33.017 100.403,33.124 100.173,33.106 100.074 C 32.949 99.201,33.186 92.227,33.357 92.657 C 33.737 93.609,33.956 92.683,33.959 90.107 C 33.961 88.480,34.044 87.605,34.205 87.506 C 34.371 87.403,34.410 87.498,34.329 87.808 C 34.194 88.327,34.482 88.428,34.674 87.928 C 34.744 87.746,34.801 87.086,34.801 86.461 C 34.801 85.604,34.904 85.222,35.220 84.906 C 35.581 84.545,35.806 83.169,35.671 82.148 C 35.661 82.073,35.815 81.884,36.013 81.729 C 36.345 81.468,36.349 81.479,36.059 81.866 C 35.767 82.255,35.771 82.264,36.111 81.997 C 36.342 81.816,36.478 81.424,36.478 80.939 C 36.478 80.515,36.596 80.041,36.740 79.885 C 36.953 79.656,36.943 79.632,36.688 79.754 C 36.495 79.847,36.516 79.789,36.740 79.605 C 36.942 79.439,37.107 79.019,37.107 78.670 C 37.107 78.231,37.225 78.005,37.494 77.935 C 37.763 77.865,37.886 77.628,37.899 77.152 C 37.910 76.774,38.112 76.265,38.351 76.010 C 38.627 75.717,38.784 75.269,38.784 74.777 C 38.784 74.084,38.922 73.912,39.432 73.968 C 39.500 73.976,39.568 73.640,39.584 73.222 C 39.612 72.491,39.945 72.033,40.294 72.248 C 40.386 72.305,40.461 72.027,40.461 71.630 C 40.461 71.070,40.561 70.882,40.908 70.792 C 41.237 70.706,41.325 70.560,41.242 70.243 C 41.180 70.006,41.217 69.758,41.323 69.692 C 41.429 69.626,41.462 69.485,41.396 69.378 C 41.329 69.270,41.422 69.182,41.602 69.182 C 41.782 69.182,41.929 69.032,41.929 68.849 C 41.929 68.666,42.141 68.328,42.400 68.098 C 42.834 67.714,42.838 67.690,42.453 67.803 C 42.088 67.910,42.076 67.891,42.361 67.663 C 42.541 67.519,42.751 67.234,42.827 67.032 C 42.903 66.829,43.086 66.687,43.233 66.717 C 43.404 66.752,43.525 66.487,43.566 65.985 C 43.617 65.369,43.719 65.199,44.038 65.199 C 44.305 65.199,44.444 65.055,44.444 64.780 C 44.444 64.528,44.584 64.361,44.794 64.361 C 44.986 64.361,45.081 64.299,45.005 64.223 C 44.929 64.147,44.984 63.940,45.128 63.763 C 45.299 63.552,45.305 63.491,45.145 63.587 C 44.963 63.696,44.961 63.609,45.139 63.232 C 45.269 62.957,45.496 62.778,45.643 62.835 C 45.809 62.899,45.912 62.769,45.912 62.496 C 45.912 62.194,46.045 62.055,46.331 62.055 C 46.714 62.055,46.910 61.384,46.775 60.535 C 46.762 60.448,46.821 60.389,46.908 60.402 C 47.371 60.475,47.589 60.333,47.589 59.958 C 47.589 59.679,47.729 59.539,48.008 59.539 C 48.239 59.539,48.428 59.420,48.428 59.275 C 48.428 59.130,48.616 58.893,48.847 58.749 C 49.078 58.605,49.266 58.356,49.266 58.197 C 49.266 58.037,49.414 57.850,49.594 57.781 C 49.774 57.712,49.863 57.560,49.791 57.444 C 49.720 57.328,49.761 57.233,49.883 57.233 C 50.005 57.233,50.094 57.162,50.080 57.075 C 50.012 56.643,50.136 56.394,50.419 56.394 C 50.594 56.394,50.734 56.208,50.734 55.975 C 50.734 55.695,50.874 55.556,51.153 55.556 C 51.433 55.556,51.572 55.416,51.572 55.136 C 51.572 54.857,51.712 54.717,51.992 54.717 C 52.222 54.717,52.411 54.586,52.411 54.427 C 52.411 54.267,52.600 54.088,52.830 54.027 C 53.061 53.967,53.249 53.767,53.249 53.584 C 53.249 53.400,53.400 53.249,53.584 53.249 C 53.767 53.249,53.967 53.061,54.027 52.830 C 54.088 52.600,54.267 52.411,54.427 52.411 C 54.586 52.411,54.717 52.222,54.717 51.992 C 54.717 51.712,54.857 51.572,55.136 51.572 C 55.416 51.572,55.556 51.433,55.556 51.153 C 55.556 50.874,55.695 50.734,55.975 50.734 C 56.205 50.734,56.394 50.603,56.394 50.444 C 56.394 50.284,56.583 50.104,56.813 50.044 C 57.044 49.984,57.233 49.784,57.233 49.600 C 57.233 49.417,57.377 49.266,57.552 49.266 C 57.728 49.266,57.962 49.030,58.071 48.742 C 58.181 48.454,58.367 48.218,58.485 48.218 C 58.604 48.218,58.700 48.077,58.700 47.904 C 58.700 47.729,58.887 47.589,59.119 47.589 C 59.390 47.589,59.539 47.449,59.539 47.196 C 59.539 46.924,59.740 46.763,60.193 46.672 C 60.686 46.573,60.795 46.476,60.631 46.279 C 60.466 46.080,60.570 46.005,61.061 45.970 C 61.417 45.944,61.809 45.812,61.934 45.677 C 62.103 45.493,62.054 45.468,61.740 45.579 C 61.466 45.676,61.393 45.656,61.530 45.523 C 61.646 45.410,61.976 45.287,62.264 45.248 C 62.612 45.202,62.778 45.054,62.759 44.811 C 62.741 44.581,62.878 44.444,63.126 44.444 C 63.382 44.444,63.522 44.296,63.522 44.025 C 63.522 43.684,63.662 43.606,64.275 43.606 C 64.852 43.606,65.054 43.508,65.138 43.187 C 65.199 42.955,65.424 42.767,65.643 42.767 C 65.898 42.767,66.038 42.619,66.038 42.348 C 66.038 42.043,66.177 41.929,66.549 41.929 C 67.125 41.929,67.437 41.607,67.035 41.429 C 66.856 41.350,66.873 41.318,67.086 41.331 C 67.837 41.375,68.361 41.287,68.265 41.133 C 68.066 40.810,68.511 40.409,69.068 40.409 C 69.391 40.409,69.735 40.241,69.876 40.016 C 70.011 39.800,70.294 39.623,70.505 39.623 C 70.792 39.623,70.855 39.518,70.755 39.203 C 70.637 38.831,70.717 38.784,71.474 38.784 C 72.187 38.784,72.327 38.715,72.327 38.365 C 72.327 37.966,72.830 37.811,73.742 37.930 C 73.886 37.949,74.004 37.771,74.004 37.535 C 74.004 37.137,74.463 36.962,75.149 37.097 C 75.260 37.119,75.453 36.996,75.578 36.825 C 75.704 36.654,76.085 36.482,76.425 36.444 C 76.804 36.400,77.044 36.251,77.044 36.059 C 77.044 35.849,77.324 35.709,77.883 35.639 C 78.517 35.560,78.714 35.445,78.692 35.168 C 78.669 34.873,78.834 34.800,79.531 34.798 C 80.008 34.796,80.540 34.703,80.713 34.591 C 80.922 34.456,80.940 34.387,80.765 34.385 C 80.359 34.380,80.456 34.055,80.870 34.033 C 81.824 33.985,82.570 33.865,82.560 33.762 C 82.513 33.246,82.683 33.124,83.445 33.124 C 84.003 33.124,84.331 33.017,84.411 32.809 C 84.477 32.636,84.627 32.495,84.744 32.495 C 84.867 32.495,84.846 32.628,84.696 32.809 C 84.508 33.036,84.503 33.124,84.677 33.124 C 84.810 33.124,84.973 32.982,85.039 32.809 C 85.115 32.614,85.449 32.489,85.924 32.480 C 86.727 32.465,87.792 32.130,87.212 32.075 C 86.578 32.016,87.734 31.686,88.627 31.671 C 89.190 31.662,89.519 31.560,89.521 31.394 C 89.523 31.219,89.592 31.237,89.727 31.447 C 89.892 31.701,89.931 31.671,89.934 31.289 C 89.937 30.846,90.903 30.611,91.915 30.806 C 92.284 30.877,93.082 30.600,93.082 30.401 C 93.082 30.291,92.940 30.256,92.767 30.323 C 92.594 30.389,92.453 30.354,92.453 30.246 C 92.453 29.953,91.602 29.964,114.675 29.961 C 126.738 29.959,141.175 29.834,147.589 29.676 L 159.015 29.394 148.637 29.494 C 142.930 29.550,138.221 29.634,138.173 29.682 C 138.013 29.842,129.324 29.772,129.421 29.612 C 129.473 29.526,126.121 29.426,121.970 29.390 C 116.685 29.344,114.466 29.391,114.562 29.547 C 114.657 29.700,113.720 29.769,111.555 29.769 C 107.423 29.769,107.096 29.385,111.155 29.297 C 119.861 29.110,283.636 29.162,283.754 29.352 M102.209 29.590 C 98.596 29.697,96.272 29.689,96.151 29.568 C 96.029 29.446,98.248 29.380,102.013 29.393 L 108.071 29.415 102.209 29.590 M165.409 29.560 L 159.015 29.674 165.578 29.722 C 169.913 29.753,172.098 29.698,172.013 29.560 C 171.941 29.444,171.865 29.372,171.843 29.398 C 171.821 29.424,168.926 29.497,165.409 29.560 M273.523 29.602 C 273.384 29.691,273.931 29.753,274.738 29.742 C 276.258 29.720,276.234 29.633,274.676 29.512 C 274.181 29.473,273.662 29.514,273.523 29.602 M276.785 29.501 C 277.104 29.549,277.575 29.547,277.833 29.498 C 278.091 29.448,277.830 29.408,277.254 29.410 C 276.677 29.412,276.466 29.452,276.785 29.501 M343.344 37.229 C 343.144 37.429,342.743 37.105,342.892 36.865 C 342.981 36.721,343.098 36.725,343.249 36.876 C 343.372 36.999,343.415 37.158,343.344 37.229 M32.789 103.459 C 32.778 103.978,32.849 104.403,32.946 104.403 C 33.044 104.403,33.124 103.978,33.124 103.459 C 33.124 102.228,32.815 102.228,32.789 103.459 M32.650 108.641 C 32.607 109.250,32.572 108.805,32.571 107.652 C 32.571 106.499,32.606 106.001,32.649 106.544 C 32.692 107.088,32.692 108.032,32.650 108.641 M366.922 116.355 C 366.940 116.978,367.077 117.078,367.160 116.529 C 367.183 116.374,367.276 116.129,367.366 115.985 C 367.470 115.820,367.415 115.723,367.217 115.723 C 367.005 115.723,366.910 115.927,366.922 116.355 M28.512 135.706 C 28.512 136.098,28.853 136.353,29.019 136.086 C 29.083 135.982,28.995 135.780,28.824 135.637 C 28.570 135.427,28.512 135.440,28.512 135.706 M110.895 180.914 C 111.065 181.022,111.131 181.182,111.043 181.270 C 110.955 181.358,110.699 181.316,110.475 181.177 C 110.252 181.037,109.997 180.924,109.909 180.926 C 109.820 180.927,109.890 181.020,110.063 181.132 C 110.252 181.254,110.278 181.337,110.128 181.339 C 109.990 181.340,109.828 181.261,109.766 181.161 C 109.504 180.736,110.328 180.556,110.895 180.914 M112.252 181.021 C 111.789 181.370,111.321 181.435,111.321 181.150 C 111.321 180.920,111.693 180.752,112.252 180.729 C 112.655 180.713,112.655 180.716,112.252 181.021 M276.101 180.922 C 276.515 181.190,278.136 181.190,278.302 180.922 C 278.383 180.791,277.938 180.714,277.109 180.716 C 276.177 180.718,275.879 180.779,276.101 180.922 M115.514 190.461 C 115.514 190.735,116.457 190.776,122.746 190.776 C 129.036 190.776,129.979 190.735,129.979 190.461 C 129.979 190.188,129.036 190.147,122.746 190.147 C 116.457 190.147,115.514 190.188,115.514 190.461 M207.547 190.461 C 207.547 190.738,209.248 190.776,221.593 190.776 C 233.939 190.776,235.639 190.738,235.639 190.461 C 235.639 190.185,233.939 190.147,221.593 190.147 C 209.248 190.147,207.547 190.185,207.547 190.461 M289.261 190.510 C 289.754 190.554,290.509 190.554,290.938 190.509 C 291.368 190.464,290.964 190.428,290.042 190.428 C 289.119 190.429,288.768 190.466,289.261 190.510 " stroke="none" fill="#ffffff" fill-rule="evenodd"></path></g></svg>